<mxfile host="65bd71144e">
    <diagram id="LDwNhVbgLp2fRjo79nab" name="Page-1">
        <mxGraphModel dx="1086" dy="1827" grid="1" gridSize="10" guides="1" tooltips="1" connect="1" arrows="1" fold="1" page="1" pageScale="1" pageWidth="827" pageHeight="1169" math="0" shadow="0">
            <root>
                <mxCell id="0"/>
                <mxCell id="1" parent="0"/>
                <mxCell id="10" style="edgeStyle=orthogonalEdgeStyle;shape=connector;rounded=0;html=1;exitX=0;exitY=0.5;exitDx=0;exitDy=0;entryX=1;entryY=0.5;entryDx=0;entryDy=0;strokeColor=default;align=center;verticalAlign=middle;fontFamily=Helvetica;fontSize=11;fontColor=default;labelBackgroundColor=default;endArrow=classic;" parent="1" source="2" target="3" edge="1">
                    <mxGeometry relative="1" as="geometry">
                        <Array as="points">
                            <mxPoint x="130" y="240"/>
                            <mxPoint x="130" y="60"/>
                            <mxPoint x="610" y="60"/>
                            <mxPoint x="610" y="240"/>
                        </Array>
                    </mxGeometry>
                </mxCell>
                <mxCell id="12" style="edgeStyle=orthogonalEdgeStyle;shape=connector;rounded=0;html=1;exitX=0.5;exitY=1;exitDx=0;exitDy=0;strokeColor=default;align=center;verticalAlign=middle;fontFamily=Helvetica;fontSize=11;fontColor=default;labelBackgroundColor=default;endArrow=classic;" parent="1" source="2" edge="1">
                    <mxGeometry relative="1" as="geometry">
                        <mxPoint x="220" y="340" as="targetPoint"/>
                    </mxGeometry>
                </mxCell>
                <mxCell id="2" value="full adder" style="rounded=0;whiteSpace=wrap;html=1;fillColor=#647687;fontColor=#ffffff;strokeColor=#314354;" parent="1" vertex="1">
                    <mxGeometry x="160" y="200" width="120" height="80" as="geometry"/>
                </mxCell>
                <mxCell id="11" style="edgeStyle=orthogonalEdgeStyle;shape=connector;rounded=0;html=1;exitX=0;exitY=0.5;exitDx=0;exitDy=0;entryX=1;entryY=0.5;entryDx=0;entryDy=0;strokeColor=default;align=center;verticalAlign=middle;fontFamily=Helvetica;fontSize=11;fontColor=default;labelBackgroundColor=default;endArrow=classic;" parent="1" source="3" target="2" edge="1">
                    <mxGeometry relative="1" as="geometry"/>
                </mxCell>
                <mxCell id="15" style="edgeStyle=orthogonalEdgeStyle;shape=connector;rounded=0;html=1;exitX=0.5;exitY=1;exitDx=0;exitDy=0;strokeColor=default;align=center;verticalAlign=middle;fontFamily=Helvetica;fontSize=11;fontColor=default;labelBackgroundColor=default;endArrow=classic;" parent="1" source="3" target="14" edge="1">
                    <mxGeometry relative="1" as="geometry"/>
                </mxCell>
                <mxCell id="3" value="full adder" style="rounded=0;whiteSpace=wrap;html=1;fillColor=#647687;fontColor=#ffffff;strokeColor=#314354;" parent="1" vertex="1">
                    <mxGeometry x="470" y="200" width="120" height="80" as="geometry"/>
                </mxCell>
                <mxCell id="16" style="edgeStyle=orthogonalEdgeStyle;shape=connector;rounded=0;html=1;exitX=0;exitY=0.75;exitDx=0;exitDy=0;exitPerimeter=0;strokeColor=default;align=center;verticalAlign=middle;fontFamily=Helvetica;fontSize=11;fontColor=default;labelBackgroundColor=default;endArrow=none;endFill=0;" parent="1" source="4" edge="1">
                    <mxGeometry relative="1" as="geometry">
                        <mxPoint x="165" y="30" as="targetPoint"/>
                    </mxGeometry>
                </mxCell>
                <mxCell id="17" style="edgeStyle=orthogonalEdgeStyle;shape=connector;rounded=0;html=1;exitX=0;exitY=0.25;exitDx=0;exitDy=0;exitPerimeter=0;strokeColor=default;align=center;verticalAlign=middle;fontFamily=Helvetica;fontSize=11;fontColor=default;labelBackgroundColor=default;endArrow=none;endFill=0;" parent="1" source="4" edge="1">
                    <mxGeometry relative="1" as="geometry">
                        <mxPoint x="195" y="60" as="targetPoint"/>
                    </mxGeometry>
                </mxCell>
                <mxCell id="4" value="" style="verticalLabelPosition=bottom;shadow=0;dashed=0;align=center;html=1;verticalAlign=top;shape=mxgraph.electrical.logic_gates.logic_gate;operation=xor;rotation=90;" parent="1" vertex="1">
                    <mxGeometry x="130" y="120" width="100" height="60" as="geometry"/>
                </mxCell>
                <mxCell id="18" style="edgeStyle=orthogonalEdgeStyle;shape=connector;rounded=0;html=1;exitX=0;exitY=0.75;exitDx=0;exitDy=0;exitPerimeter=0;strokeColor=default;align=center;verticalAlign=middle;fontFamily=Helvetica;fontSize=11;fontColor=default;labelBackgroundColor=default;endArrow=none;endFill=0;" parent="1" source="5" edge="1">
                    <mxGeometry relative="1" as="geometry">
                        <mxPoint x="475" y="30" as="targetPoint"/>
                    </mxGeometry>
                </mxCell>
                <mxCell id="19" style="edgeStyle=orthogonalEdgeStyle;shape=connector;rounded=0;html=1;exitX=0;exitY=0.25;exitDx=0;exitDy=0;exitPerimeter=0;strokeColor=default;align=center;verticalAlign=middle;fontFamily=Helvetica;fontSize=11;fontColor=default;labelBackgroundColor=default;endArrow=none;endFill=0;" parent="1" source="5" edge="1">
                    <mxGeometry relative="1" as="geometry">
                        <mxPoint x="505" y="60" as="targetPoint"/>
                    </mxGeometry>
                </mxCell>
                <mxCell id="5" value="" style="verticalLabelPosition=bottom;shadow=0;dashed=0;align=center;html=1;verticalAlign=top;shape=mxgraph.electrical.logic_gates.logic_gate;operation=xor;rotation=90;" parent="1" vertex="1">
                    <mxGeometry x="440" y="120" width="100" height="60" as="geometry"/>
                </mxCell>
                <mxCell id="8" value="" style="edgeStyle=orthogonalEdgeStyle;html=1;entryX=0.75;entryY=0;entryDx=0;entryDy=0;rounded=0;" parent="1" source="6" target="3" edge="1">
                    <mxGeometry relative="1" as="geometry"/>
                </mxCell>
                <mxCell id="6" value="A0" style="text;html=1;align=center;verticalAlign=middle;resizable=0;points=[];autosize=1;strokeColor=none;fillColor=none;" parent="1" vertex="1">
                    <mxGeometry x="540" y="118" width="40" height="30" as="geometry"/>
                </mxCell>
                <mxCell id="9" value="" style="edgeStyle=orthogonalEdgeStyle;shape=connector;rounded=0;html=1;strokeColor=default;align=center;verticalAlign=middle;fontFamily=Helvetica;fontSize=11;fontColor=default;labelBackgroundColor=default;endArrow=classic;entryX=0.75;entryY=0;entryDx=0;entryDy=0;" parent="1" source="7" target="2" edge="1">
                    <mxGeometry relative="1" as="geometry"/>
                </mxCell>
                <mxCell id="7" value="A1" style="text;html=1;align=center;verticalAlign=middle;resizable=0;points=[];autosize=1;strokeColor=none;fillColor=none;" parent="1" vertex="1">
                    <mxGeometry x="230" y="118" width="40" height="30" as="geometry"/>
                </mxCell>
                <mxCell id="13" value="S1" style="text;html=1;align=center;verticalAlign=middle;resizable=0;points=[];autosize=1;strokeColor=none;fillColor=none;fontFamily=Helvetica;fontSize=11;fontColor=default;labelBackgroundColor=default;" parent="1" vertex="1">
                    <mxGeometry x="200" y="338" width="40" height="30" as="geometry"/>
                </mxCell>
                <mxCell id="14" value="S0" style="text;html=1;align=center;verticalAlign=middle;resizable=0;points=[];autosize=1;strokeColor=none;fillColor=none;fontFamily=Helvetica;fontSize=11;fontColor=default;labelBackgroundColor=default;" parent="1" vertex="1">
                    <mxGeometry x="510" y="318" width="40" height="30" as="geometry"/>
                </mxCell>
                <mxCell id="20" value="B1" style="text;html=1;align=center;verticalAlign=middle;resizable=0;points=[];autosize=1;strokeColor=none;fillColor=none;fontFamily=Helvetica;fontSize=11;fontColor=default;labelBackgroundColor=default;" parent="1" vertex="1">
                    <mxGeometry x="147" y="8" width="40" height="30" as="geometry"/>
                </mxCell>
                <mxCell id="21" value="B0" style="text;html=1;align=center;verticalAlign=middle;resizable=0;points=[];autosize=1;strokeColor=none;fillColor=none;fontFamily=Helvetica;fontSize=11;fontColor=default;labelBackgroundColor=default;" parent="1" vertex="1">
                    <mxGeometry x="454" y="9" width="40" height="30" as="geometry"/>
                </mxCell>
                <mxCell id="22" value="C out" style="text;html=1;align=center;verticalAlign=middle;resizable=0;points=[];autosize=1;strokeColor=none;fillColor=none;fontFamily=Helvetica;fontSize=11;fontColor=default;labelBackgroundColor=default;" parent="1" vertex="1">
                    <mxGeometry x="110" y="238" width="50" height="30" as="geometry"/>
                </mxCell>
                <mxCell id="23" value="C in" style="text;html=1;align=center;verticalAlign=middle;resizable=0;points=[];autosize=1;strokeColor=none;fillColor=none;fontFamily=Helvetica;fontSize=11;fontColor=default;labelBackgroundColor=default;" parent="1" vertex="1">
                    <mxGeometry x="280" y="238" width="40" height="30" as="geometry"/>
                </mxCell>
                <mxCell id="24" value="C out" style="text;html=1;align=center;verticalAlign=middle;resizable=0;points=[];autosize=1;strokeColor=none;fillColor=none;fontFamily=Helvetica;fontSize=11;fontColor=default;labelBackgroundColor=default;" parent="1" vertex="1">
                    <mxGeometry x="415" y="238" width="50" height="30" as="geometry"/>
                </mxCell>
                <mxCell id="25" value="C in" style="text;html=1;align=center;verticalAlign=middle;resizable=0;points=[];autosize=1;strokeColor=none;fillColor=none;fontFamily=Helvetica;fontSize=11;fontColor=default;labelBackgroundColor=default;" parent="1" vertex="1">
                    <mxGeometry x="584" y="238" width="40" height="30" as="geometry"/>
                </mxCell>
                <mxCell id="27" style="edgeStyle=orthogonalEdgeStyle;shape=connector;rounded=0;html=1;strokeColor=default;align=center;verticalAlign=middle;fontFamily=Helvetica;fontSize=11;fontColor=default;labelBackgroundColor=default;endArrow=none;endFill=0;" parent="1" source="26" edge="1">
                    <mxGeometry relative="1" as="geometry">
                        <mxPoint x="610" y="60" as="targetPoint"/>
                    </mxGeometry>
                </mxCell>
                <mxCell id="26" value="M" style="text;html=1;align=center;verticalAlign=middle;resizable=0;points=[];autosize=1;strokeColor=none;fillColor=none;fontFamily=Helvetica;fontSize=11;fontColor=default;labelBackgroundColor=default;" parent="1" vertex="1">
                    <mxGeometry x="622" y="45" width="30" height="30" as="geometry"/>
                </mxCell>
                <mxCell id="28" value="Sophie N&lt;div&gt;TEJ3M&lt;/div&gt;&lt;div&gt;Unit 4-20&lt;/div&gt;" style="text;html=1;align=center;verticalAlign=middle;resizable=0;points=[];autosize=1;strokeColor=none;fillColor=none;" parent="1" vertex="1">
                    <mxGeometry x="670" y="-7" width="70" height="60" as="geometry"/>
                </mxCell>
                <mxCell id="29" value="" style="shape=image;verticalLabelPosition=bottom;labelBackgroundColor=default;verticalAlign=top;aspect=fixed;imageAspect=0;image=data:image/png,iVBORw0KGgoAAAANSUhEUgAAAncAAAKyCAIAAAA4jW8yAAAAAXNSR0IArs4c6QAAIABJREFUeJzs3XlcE9faOPAT1qBsIquoEERkFVRcoMWWaK/WX7VaWhYpdpEK9ypvoVVbt7bXUnHD0ir3ihW1FapW0NYFexUqpYoLIIpBBcEEECsQEAJKSBB+f8zbvFwIYUhm5kzg+X76+XQyJud55jmTOZnJhMPp7u5GNKuurh4/fjzdUaiKRXe2dLe/TV/fvLNzwKc16+l9IpfTkYC+vn4niQQYoKenJ6dnG8ljcudnZwJKpaWlWVpaMh9XLBa//fbbzMcFw5DiraeDOxMAAABgyIJRFgAAAKALjLIAAAAAXf5rlG1qasrNzW1paen1pM7OzqKiooaGBgoD9xcLIVRSUvLgwQMKY2kiPz8/Nzc3Nzc3Pz+/tbW1179qXhnV7TNcjaampuvXrz99+pSZcFhIpdLS0tIbN26w5MtjqgxqV6S1o1n1/iXvq6++OnDgwKBekpiY+K9//UvtiE1NTREREc+ePVO7BaWys7Ojo6PZkAkg/Ncom5iYOG/evF77zT//+U87O7tVq1Z5e3v7+vr++eeflARWGuvZs2cxMTHe3t6pqamURNFcSEhIbGzsV199tXr1alNT0xkzZtTU1BD/REllVLTPZDXOnDkzceJEHx+fjz/+2NXV1dfX99atW3QHZVh3d3diYqKZmdkbb7wRERFhamq6aNGixsZGTdosKiq6evUqdTmqifyuSGtHs/D9S969e/eqqqoG9RIXF5cJEyaoHbG9vT0tLY3yG/Ssra2nTp3KTCb//ve/B/uSYej/Rlm5XH7o0KGvvvrq+++/V9x4LBKJvvjii7y8vCtXrjx69GjEiBHff/+95lGVxkIILV++XC6XL1myRPMQFFq3bt2FCxfy8/NFIlFTU9OePXuorYzS9hmuxqZNm6Kioqqrq//444+amprXX399zZo1DMRl0p49e77++uvc3NyysrLS0tKCgoKmpiald5w+f/68pKTk3r17XV1dqttMT0+/fv36oNJoaWkpLi4esGXC06dPHz58SCy3t7ffuXOn73MGtSuq19FdXV33798nlru7u2/fvv38+fO+T2Pn+1e1R48eiUSivuurq6uLiopkMlnPlfX19cXFxYptX7hw4bx583o+oby8XPGv9+/f73W1oLGxkWTXt7S0XLt2rdfFrUePHt26dWvAsXDy5MkrVqxQ/RzVmSiNTigtLVWc8jY2Nn722WcDbQroMcqePHnS1tY2Li5OLpdnZ2cTKx0cHEpLS93c3IiH48aNa25u1jyq0lgIoQ0bNuzdu3fkyJGah6CDg4PDCy+8QLyL6KhMz/YZrsbjx4+trKwUDzdt2nT+/HkG4jJGKpV+/vnnmzdv9vPzI9Z4eHicOXMmJSWl1zNv377t7u7+xhtv/O1vf/Px8SEufh44cMDf31/xHCsrq0uXLqWkpKSlpe3du3ft2rVkcmhpaXnllVecnZ3//ve/jxs37ttvv+2v5fr6eg6Hc+LEiTlz5kyYMOGLL744derUSy+9NGXKlMjIyF7NDmpX7K+jKyoqOBxOW1sbsf6tt95KSEhACPn4+Ozfv3/OnDm+vr5/+9vf7t69GxAQMHfu3OnTpyuerMDy929fX375pYODw1tvvfX6669LJBJiZVtb22uvvTZ58uRly5aNGzcuLy+PWP/RRx85OztHRUV5e3vfvXsXIRQdHf3xxx8jhP7nf/7n008/DQ4OfvXVVydNmnTv3r3g4OAFCxY4OjrevHmT2P0CAgJ8fX0/+OADNzc3YmV/vvjiCysrq5UrV44ePfqbb77pmery5ct9fX1DQ0M3btyIEHr33Xc/+eQT4gk3b940MDAgPvnNmDGjra3NxMTk2rVrxL8+efLEyMjo1q1bA2aiNLqPj8+hQ4cCAwOXLl3q6OhYUFDQ3t6+YMECYpe+ffs2hZ0y9PzfKLt///53331XV1c3IiJC8f0Eh8Nxd3cnlh8+fHjhwoXg4GDNoyqNhRDy9PTUvHHK3bt3Lzc3Nysra9WqVefPn1++fDm1lVHaPsPV+Pzzz1esWPGPf/zjl19+URxuhpLy8vInT54sXry450pzc/O+vyV955135s2bV1FRUVVVFRQUtGHDhv7ajIqKmjZtWnR09Pbt28nkcOXKlerq6rq6uqtXr+bl5ZWWlvb3TB0dHYRQbW3t1atXc3Jyvvzyy9LS0uvXrxcVFaWmpva6IDyoXXGwHa2jo3Px4sXz588LhUKBQLBp06acnJz79+8/e/bs9OnTvZ7Mzvdvf8rLy+Pj44mrGsnJyYrRdPfu3V1dXY8fPy4tLd2yZUtYWJhUKv3tt9+OHDly586d69evr1mzRvEmJejo6Pzyyy979+4tKytzc3NbtGjRnj177t27N2/evH379iGELly4MGPGDKFQWFhYuGLFCmKMVOry5cspKSkikaiwsLCkpGTdunU3btxQpFpYWHj27Nn//Oc/urq6qrfO2Nh48eLFx48fJx5mZGRMnjzZ29tbdSZKoxMbeObMmXPnzt26dSs4OHjXrl1GRkbE9y8XLlzw8vLSoB+GPj3if/fv3//jjz+ILnnvvffc3NzEYnHPn43X1NQEBgZu3759sFf8+xowFtucPHny0qVLz58/LygoWLJkSa+P6ppXRnX7zIiOjp45c+aRI0fWr19///79xYsXf/jhhy+88ALzmdDk4cOHXC7XwsJC9dOIK2k//fQTMXotXLhw+/btVP3lFnt7+0ePHqWkpISGhk6YMKHvaXQv8+fPRwj5+/t3dXX97W9/I4axUaNG1dTU2NnZ9X0+mV1RjY7m8/n6+voWFhbu7u4vvPCCoaGhoaGhh4dHbW3tYLaedW7cuOHs7Ozi4oIQGjt27MyZM4n1p0+fDgwMJL5u5/F4DQ0Nd+/ePXv27IIFC8aOHUt8DnvnnXd6tTZjxgxi7/L19dXX17e2tiaWL168SFxbfu211yoqKh4+fNjR0VFRUdFfVqdOnfL19S0vLy8vL0cIeXt7//HHHzY2NkpTVS08PPyDDz7YsWMHh8M5duxYRETEgJkojU7sTq+++iqXy0UITZs2TRu/d8fof0fZ7777jsvlvvnmm8RDDodz6NCh1atXEw+vXLmyYsWKzz//nOgnDamOxULr1q0LCQlBCHV0dHz22Wfz5s0TCATEZ0lKKqOifSZNmTJlypQp27dv//PPPw8dOjR//vzy8nKlR3NtZGFhIZVKGxsbR48ereJpxD26is98JiYmz549e/LkCSU5eHl5/f777/v27UtMTBwzZsy77777/vvvq3i+iYmJ4rxW8dlLV1dX6ddp5HdFpR2t4vnGxsbEAofDUaSho6ND8qtl1mppaVFsGnFhg1j4888/z507p/i6/aWXXuro6KivrycGzv4QnUVUpm+VDh8+vHbt2hdffNHDw6OyslJF6Yhz6K+++op4aGxsbGRk1F+qqr3yyitdXV15eXkTJkzIz8/PyMgYMBOl0RXLvTYKkKRHHNx/+OGHLVu2KL7auXr16oEDBz7++GMOh3Pu3LkVK1b89NNPii+0NKE6lubt08rQ0JC4PFhTU+Po6EhtZfq2T0mbZDx+/PjUqVOKOybs7Ow++eQT4lxnyIyy06ZNGzVq1Hfffffpp58qVt6/f//f//73zp07iZEMIWRra0v8HT7iQFZfX29qatrrDLizs1PpL9DImDp16t69e7u7u9PS0pYtW0acrWreMsldUUVH29vb93wmJbdfsJyVlVXPz08NDQ2TJk0iyvL+++/3+v77+PHjitvRnz59KhaLHRwcyMfasWPHpk2b/vGPfxCnGYqvS/uytbV98cUXf/jhh54rT5w4oTTVnsfMvl2mq6sbHh5+4sSJsWPHvv7668QurToTpdGBhnSIS/ZcLjc6Ovrlv8TGxj569OjixYvt7e0ffPDBkSNHqBpIVMSipH36dHV13bhxY/369ZMmTRo/fjzllenVPiVtkqSrq7t27dpdu3ZJpVKEkEwm27NnD5fL9fDwYDINWunr63/yySebNm368ssvHzx40N7eTlyf7+rqUgyxxFnCyy+/TNzm/fz58+TkZOKrXEtLS5FIRAyBp0+f1tP734tAI0aM6OjoIJnDsWPHtm7dqrgWraOjo6+v31/L5JHfFVV0NHH6TtzGUltbO/R+x9XXzJkz79+///vvvyOErl+/npubS6xfuHBhSkoKMWg9evQoKiqqq6vr//2//5eVlUXcjfz9998HBAQM6nsEqVRKnOA+e/YsIyOj163LPS1atOiXX34RCAREB61ataqurq5nqgUFBQUFBcSTR48eXVpaSmTyn//8p29r4eHhZ8+ePXHihOJeetWZKI3eX6ojRoyQyWRwXjsgHYRQamrq+++/3/NjEZfLffvttw8cOHD+/Pna2tqAgADOX1599VVN4qmIhRAyMDDgcDhpaWlbtmzhcDh8Pl+zraNGaGgoh8PR1dUNCQkxMTE5f/68jo4OhZVR2j6T1bCysjp//nxGRoaFhYWfn9/o0aMPHDhw6tQp1RdXtc7atWsPHjz4008/TZgwYcSIEQsXLly2bFlSUlKvp+3evfuXX36ZNGnSuHHjHjx4QFw9mzt3roeHh4ODA/GdFo/HIw4uCxcu3Ldv34IFC8gksGDBggsXLkybNu2VV16ZPXv2vn37rKys+muZPPK7ooqONjMz++STT1566aWXXnpp69atr732mhpHT3a+f/tjb2+/adMm4n7pr776KiQkhBiuYmJi7OzsHB0d586dy+fzFy1apKOjw+fz3333XQ8PDz6fv2fPnrS0tEFde/v8888//fTTV155ZenSpbGxsU+fPu3v904vvPBCXFzc1KlTAwICpk2bZmtra2NjY29vv3HjRiLVPXv2KG7i++CDD+7du+fs7BwaGurg4PD8+fNeY7+3t7exsXF1dbVil1CdidLo/W3U5MmTXVxcZs6cSdzHAPrDgTl5KG8Bb/uazMlTV1dXVVU1fvx44sKpetg/J49QKJRIJJ6env19+f38+fPbt2+PHDnS2dm558FUIBA4ODgovoEjo293P3nypLKycvLkycTvLtRuWe0EVHR0fX19R0fHuHHjKE+jF/bMyVNTU9PZ2cnj8Xo9s6ampqmpydvbu+fKhoaGmpoab29vNW6baG5uFovFzs7OZJ7c0tJy//59b29vfX39ninJ5XInJ6eIiAgnJ6d//vOfxLcMAoHA09OT/FWQATNRGh0MluKtN+jLU2AIs7GxUfHRdcjoe0jtRVdX18fHp+96Sn6pMmrUKF9fXzpaJq+/jlZ9g8+Q1N9HinHjxvX9Jysrq56/Nh4Uc3NzknctIYTMzMz67iRKU9XT01O6r2qSidLoQG0wygIAgDZxdXUdMrclDgcwygIAgDZR8ZdSAAvBzHcAAAAAXTiDnYYCsNwR0pOEhFVW0pGAJrOUUK6Snm0EGlL8OUPmzZ49G1doMDzpMXD3L9xjzGT7CCGS9xjTlwZ77jFm+JfHfTG587Mzgf7guseYkmpoUlUNe0RLQw9DinLBFWMAAACALjDKAgAAAHSBURYAAACgC4yyAAAAqCGV4s6AfagcZYm5f8n/8XRtiaUeujPEXgHsCbAK9mpgT0ApdmZFHsb8tTC0VHg80j8gMushTXlpK2pGWZlMFhQU5OvrGxUV5eDgUFJSQkmz2GOph+4MsVcAewKsgr0a2BNQip1ZkYcxfy0N3XwpMXL9Df+PNvDH0pmiFqLmbz8dPHhQIpHU1tYaGhoeOnQoOjo6Pz+fkpYpiZWUlOTp6Tl37lyaUtI8Q1a1z/4EWAV7NbAnoEVZkYfxOIOxdOqHFp3YGJfJ25y5M4zHpT1NLUPNuWxGRkZYWJihoSFCKCws7Pbt2w8ePKCkZUpiVVRUqJglkXJ0V4PJarMzAVbBXg3sCWhRVuRhPM6QDy0QCL7so+907nSE/i+dj7O2x+d7rd6wBIZYJagZZSsrKx0dHYllQ0NDe3v78vJySlrGG0s9dGeIvQLYE2AV7NXAnoBS7MyKPIz5a13o5qupibf94zcvhTFWKWquGIvFYmNjY8VDU1PTxsZGSlrWJNaxY8dCQ0OJ5eTkZGJeSaFQqNiNsGfIzvbZnwCrYK8G9gSUYmdW5GE8zpAP7enpSe2ciWRDdzZfOZ7ZHrCcPxYhqTDz20xucDp8HdsfakZZS0vLtrY2xUOJRGJhYUFJy5rECgkJCQkJQQitWrXKz88vPDycppTUzpCd7bM/AVbBXg3sCSjFzqzIw3icIR+6vr7+zp07vVbOmjWLy1XzpJJs6M4nd04nJhfwftvOR4WpqTX+G99yg/PY/lBzxdjOzk7xZ9lbW1urq6vt7e0paRlvLPXQnSH2CmBPgFWwVwN7AkqxMyvyMOZPPrRAIPiqD02+lyUbmssL/+xj3h+J6YLHN05dsQtezrdVO+bQR80ou3jx4t27dxMfgpKSklxcXDw8PChpmZJYzs7ONjY2NOXTF93VYLLa7EyAVbBXA3sCWpQVeRiPM+RD8/n8C33Y2qo/4pEPzXUOWhn4JH1f6o8CXtCSKXAiqwI1V4zj4uKKioocHR3Hjx9fX1+fnZ2tq6tLScuUxIqNjaUpGaXorgaT1WZnAqyCvRrYE9CirMjDeJzBWLpBhNYz918aZPTK6rN+ezbAiaxKnO7ubqraEgqFTU1NXl5eBgYGPdfTMV8SfbGoypbuavTX/jZ9fZIz330il9ORgL6+PntmvpNrto3kMbnzszOBQWWVlpaGa+Y74u4kkuioKsnXakNoqfBmcbOx2xRnc/XyGdoU5aLmXJbA4/F4PB6FDbIklnrozhB7BbAnwCrYq4E9AaXYmRV5GPPXhtBcno8fA/loO5gtAAAAAKALjLIAAAAAXWCUBQAAAOjCqaqqwp0DoNKRCRNIPjPsrx/GUWsC6QQYUEnPNgIN5eXl4Qo9e/ZsXKHB8KTHwP2HTN7lyJ57jHG1jxAieY8xfWmw5x5jjLfXEvDe4suGBPqD6x5jSqrBwI2+Qyz0MKQoF1wxBgAAAOgCoywAAABAFxhlAQAAALrAKAsAAIAaUinuDNiHylFWJBIVFhZ2dHRQ2CYbYqmH7gwlEklubm5XVxdN7Q+I/V3AJOzVwJ6AUtj3Ug1hrCrG0qkbWio8HukfEJn1kKa8tBU1o6xMJgsKCvL19Y2KinJwcCgpKaGkWeyx1MNAhnl5eT4+PoGBgTKZjPLGB8T+LmAS9mpgT6A/ePdSDeGtKsbSqR26+VJi5Pob/h9tgOnce6FmlD148KBEIqmtrS0qKtq6dWt0dDQlzVIVKykpKTs7m76UeqG7GiUlJcuWLVu7di21zZLHZHezH/ZqYE9AKex7qYYwHmcwlk790KITG+MyeZszd4bxYBa8XqiZLSAjIyMsLMzQ0BAhFBYWFhMT8+DBAycnJ0oa1zxWRUWFlZUVHclQleGgWFtbFxYWisViqhocLCa7m/2wVwN7Akph30s1hPE4Q750AoHg5MmTvVbGxMSYm6s5SY6avdb5OGt7fL7X6swlMMQqQc25bGVlpaOjI7FsaGhob29fXl5OSct4Y6mH7gxtbW2x/KJfgf1dwCTs1cCegFLY91INYawqxtKpF7r5amribf/4zUthjFWKmnNZsVhsbGyseGhqatrY2EhJy5rEOnbsWGhoKLGcnJxMzCspFAoVbx7sGWqpIb+Bg4K9GtgTGJLYf5xBCHl6enp6etIdRYnO5ivHM9sDlvPHIiQVZn6byQ1Oh69j+0PNKGtpadnW1qZ4KJFILCwsKGlZk1ghISEhISEIoVWrVvn5+YWHh9OUktoZaqkhv4GDgr0a2BMYkth/nEEI1dfX37lzp9fKWbNmcbk0n1R2PrlzOjG5gPfbdj4qTE2t8d/4lhucx/aHmlHWzs6usrKSz+cjhFpbW6urq+3t7SlpGW8s9bA/Qw0N+Q0cFOzVwJ7AkKQVVRUIBAkJCb1WHj582NbWlt7AXF74Zx9nRSSmC9zdTl2xC97JpzmgVqPme9nFixfv3r2b+OiXlJTk4uLi4eFBScuUxHJ2draxsaEpn76YrAYWQ34DBwV7NbAnMCSx/ziDEOLz+Rf6oH2IRQghxHUOWhn4JH1f6o8CXtCSKXAiqwI157JxcXFFRUWOjo7jx4+vr6/Pzs7W1dWlpGVKYsXGxtKUjFJ0VyMhIWH9+vXEspGREUIoOzt7zpw5FIZQjcnuZj/s1cCegFLY91INYTzOYCzdIELrmfsvDTJ6ZfVZvz0b4ERWJU53dzdVbQmFwqamJi8vLwMDg57r6Zgvib5YVGXLZDV62qavT3Lmu0/kck0C9beB+vr67Jn5Tq7ZNpKHq7vZk8CgpKWl4Zr5jrg7iSQ6qjqEZr6TCm8WNxu7TXFW84dDQ5uiXNScyxJ4PB6Px6OwQZbEUg/7M9TQkN/AQcFeDewJDElQVZW4PB8/3DloAZgtAAAAAKALjLIAAAAAXWCUBQAAAOjCqaqqwp0DoNKRCRNIPjOsspKOBCaQToABlfRsI9BQXl4ertCzZ8/GFRoMT3oM3H/I5F2O7LnHGFf7CCGS9xjTlwZ77jHGfnst9lt8sSfQH1z3GFNSDTbd6KsdoYchRbngijEAAABAFxhlAQAAALrAKAsAAADQBUZZAAAA1JBKcWfAPlSOsiKRqLCwsKOjg8I22RBLPRKJJDc3t6uri6b2sVcAewKsgr0adO9v6sFeFg1hzL+hoaG4uBjLjYTqhpYKj0f6B0RmPaQpL21FzSgrk8mCgoJ8fX2joqIcHBxKSkooaRZ7LLXl5eX5+PgEBgbKZDLKG8deAewJsAobqkHr/qYeNpRFExjzFwqF06ZNmz59enR0tLW19bZt27QidPOlxMj1N/w/2gDTufdCzSh78OBBiURSW1tbVFS0devW6OhoSpqlKlZSUlJ2djZ9KfVSUlKybNmytWvX0tQ+k9VmZwKsgr0adO9v6sFeFg1hPM7Ex8e7ubmJRKJr164dOXJk8+bNmrdJe2jRiY1xmbzNmTvDeDALXi/UzBaQkZERFhZmaGiIEAoLC4uJiXnw4IGTkxMljWseq6KiwsrKio5klLK2ti4sLBSLxTS1z2S12ZkAq2CvBt37m3qwl0VDGI8zX3/9NTGvLUJo3Lhxz549a2trMzY27vtMgUBw8uTJXitjYmLMzdWcJId86P/S+Thre3y+1+rMJTDEKkHNuWxlZaWjoyOxbGhoaG9vX15eTknLeGOpx9bWltZf3GOvAPYEWAV7Neje39SDvSwawpi/qanpmDFjiOXU1NTg4OCBxzmsoZuvpibe9o/fvBTGWKWoOZcVi8U9O8PU1LSxsZGSljWJdezYsdDQUGI5OTmZmFdSKBQq3jxaislqszMBVoFqKKXtZWH4ONPS0kIsmJmZKVbGx8fn5ubm5OT09ypPT09PT0/yUSgL3dl85Xhme8By/liEpMLMbzO5wenwdWx/qBllLS0tFdcZiNsdLSwsKGlZk1ghISEhISEIoVWrVvn5+YWHh9OUEsOYrDY7E2AVqIZS2l4WJo8zZWVlrq6uxPLjx49tbGza29s3bdpUUFBw4cIFFZd/6+vr79y502vlrFmzuFyyJ5Vqhu58cud0YnIB77ftfFSYmlrjv/EtNziP7Q81o6ydnV1lZSWfz0cItba2VldX29vbU9Iy3ljshL0C2BNgFaiGUtpeFibznzRpUnd3t+KhTCZbtGiRk5PT+fPniS+G+yMQCBISEnqtPHz4sK2tLb2hubzwzz7OikhMF7i7nbpiF7yTTzbgcETN97KLFy/evXs38dEvKSnJxcXFw8ODkpYpieXs7GxjY0NTPsxjstrsTIBVoBpKaXtZMB5n9uzZo6Ojs3fvXtVDLEKIz+df6IP8EKtJaK5z0MrAJ+n7Un8U8IKWTIETWRWoOZeNi4srKipydHQcP358fX19dna2rq4uJS1TEis2NpamZJRKSEhYv349sWxkZIQQys7OnjNnDlXtM1ltdibAKtirQff+ph7sZdEQxuPM0aNHCwoKdHT+7xTojz/+ePHFFylpnLLQeub+S4OMXll91m/PBjiRVYnT83KBhoRCYVNTk5eXl4GBQc/1dMyXRF8sbZn5rr8KbNPXJznz3SdyOR0J6Ovrs2fmO7lm20gekzv/oOBNoL+ypKWl4Zr5jrg7iSQ6unUIzXwnFd4sbjZ2m+Ks5g+HhjZFuag5lyXweDwej0dhgyyJxU7YK4A9AVaBaiil7WXR9vxpxuX5+OHOQQvAbAEAAAAAXWCUBQAAAOgCoywAAABAF05VVRXuHACVjkyYQPKZYZWVdCQwgXQCDKikZxuBhvLy8nCFnj17Nq7QYHjSY+D+Qybvchw+9xirQPIeY/rSYM89xnjv78V+iy8bEugPrnuMKakGm2701Y7Qw5CiXHDFGAAAAKALjLIAAAAAXWCUBQAAAOgCoywAAABqSKW4M2AfKkdZkUhUWFjY0dFBYZtsiKUeiUSSm5vb1dWlpe0PiP1dwCTs1cC+PyjFzqzIw9itGEunbmip8Hikf0Bk1kOa8tJW1IyyMpksKCjI19c3KirKwcGhpKSEkmaxx1JbXl6ej49PYGCgTCbTxvZV04ouYAwbqoF3f+gPO7MiCW+3Yiyd2qGbLyVGrr/h/9EGmM69F2pG2YMHD0okktra2qKioq1bt0ZHR1PSLFWxkpKSsrOz6Uupl5KSkmXLlq1du1ZL2x8Qk93NftirgX1/UIqdWZGH8TiDsXTqhxad2BiXyducuTOMB7Pg9ULNbAEZGRlhYWHElIRhYWExMTEPHjxwcnKipHHNY1VUVFhZWdGRjFLW1taFhYVisVhL2x8Qk93NftirgX1/UIqdWZGH8ThDvnQCgeDkyZO9VsbExJibqzlJjpq91vk4a3t8vtfqzCUwxCpBzblsZWWlo6MjsWxoaGhvb19eXk5Jy3hjqcfW1pbWX9zT3f6A2N8FTMJeDez7g1LszIp8EkmlAAAgAElEQVQ8jN2KsXTqhW6+mpp42z9+81IYY5Wi5lxWLBYbGxsrHpqamjY2NlLSsiaxjh07FhoaSiwnJycT80oKhULFmweoh8nuZj+oxpDE8HGmpaWFWDAzMyP/Kk9PT09PT/LPpyx0Z/OV45ntAcv5YxGSCjO/zeQGp8PXsf2h5lzW0tKyra1N8VAikVhYWFDSsiaxQkJCuru7u7u7V65cmZaWRizDEKs5Jrub/aAaQxKTx5mysjLzv9TV1ZF/YX19fW4f0sH8mEbN0J1P7pxOXL3rt+ZO1FyYmlrjv/ItNziP7Q8157J2dnaVlZV8Ph8h1NraWl1dbW9vT0nLeGMBpaALeoJqDElMduukSZO6u7vVeKFAIEhISOi18vDhw7a2tvSG5vLCP/s4KyIxXeDuduqKXfBOPtmAwxE157KLFy/evXs38dEvKSnJxcXFw8ODkpYpieXs7GxjY0NTPsMQk93NflCNIUkrjjN8Pv9CH+SHWE1wnYNWBj5J35f6o4AXtGQKnMiqQM0oGxcX5+7u7ujoOHXq1JSUlKNHj+rq6lLSMiWxYmNj586dS1M+fSUkJHA4HDc3N4SQkZERh8PJycnRovYHxGR3sx/2amDfH7QoK/IwHmcwlm4QofXM/ZcGGR3feFZvih+cyKrEUe9KhVJCobCpqcnLy8vAwKDnejrmS6IvlrbPfLdNX5/kzHefyOWaBOqvC/T19dkz851cs20kj8mdf1CwJ6BUWloarpnviLuTSKKjW4fQzHdS4c3iZmO3Kc5q/nBoaFOUi5rvZQk8Ho/H41HYIEtiAaWgC3qCagxJ0K0qcXk+frhz0AIwWwAAAABAFxhlAQAAALrAKAsAAADQhVNVVYU7B0ClIxMmkHxmWGUlHQlMIJ0AAyrp2Uagoby8PFyhZ8+ejSs0GJ70GLj/kMm7HOEeY4QQyXuM6UuDPfcYY7+9FvstvtgT6A+ue4wpqQabbvTVjtDDkKJccMUYAAAAoAuMsgAAAABdYJQFAAAA6AKjLAAAAGoMZkKg4YLKUVYkEhUWFnZ0dFDYZn8kEklubm5XVxcDsdRDdzWYrDY7E2AV7NXAnoBS7H+fqoYxf4wdqu5WS4XHI/0DIrMe0pSXtqJmlJXJZEFBQb6+vlFRUQ4ODiUlJZQ025+8vDwfH5/AwECZTEZrIPXQXQ2Gq83CBFgFezWwJ9Aflr9PB4Qrf7wdqvZWN19KjFx/w/+jDTCdey/UjLIHDx6USCS1tbVFRUVbt26Njo6mpFmlSkpKli1btnbtWvIvSUpKys7Opi+lXuiuBpPVZmcCrIK9GtgTUEqN9ymrYDzOYOxQ9XtNdGJjXCZvc+bOMB7MgtcLNbMFZGRkhIWFGRoaIoTCwsJiYmIePHjg5ORESeO9WFtbFxYWisVi8i+pqKiwsrKiIxml6K4Gk9VmZwKsgr0a2BNQSo33KatgPM6Q71CBQHDy5MleK2NiYszN1ZwkR81e63yctT0+32t15hIYYpWg5ly2srLS0dGRWDY0NLS3ty8vL6ek5b5sbW2x/J6dPLqrwWS12ZkAq2CvBvYElGL/+1Q1jPlj7FD1trr5amribf/4zUthjFWKmnNZsVhsbGyseGhqatrY2EhJy5o4duxYaGgosZycnEzMKykUChV7ME3orgb2amNPgFWwVwN7AsMc5ccZ8h3q6enp6empXhSNdDZfOZ7ZHrCcPxYhqTDz20xucDp8HdsfakZZS0vLtrY2xUOJRGJhYUFJy5oICQkJCQlBCK1atcrPzy88PJyZuHRXA3u1sSfAKtirgT2BYY7y4wz5Dq2vr79z506vlbNmzeJyaT6p7Hxy53RicgHvt+18VJiaWuO/8S03OI/tDzWjrJ2dXWVlJZ/PRwi1trZWV1fb29tT0rI2orsa2KuNPQFWwV4N7AkAapHvUIFAkJCQ0Gvl4cOHbW1t6U2Rywv/7OOsiMR0gbvbqSt2wTv5NAfUatR8L7t48eLdu3cTn7+SkpJcXFw8PDwoaZkSzs7ONjY2jIWjuxrYq409AVbBXg3sCQACVccZ8h3K5/Mv9EH7EIsQQojrHLQy8En6vtQfBbygJVPgRFYFas5l4+LiioqKHB0dx48fX19fn52draurS0nLfSUkJKxfv55YNjIyQghlZ2fPmTNHxUtiY2NpSkYpuqvBZLXZmQCrYK8G9gSUUuN9yioYjzMYO3QQW61n7r80yOiV1Wf99myAE1mVON3d3VS1JRQKm5qavLy8DAwMeq4fnjPf0V2N/trfpq9Pcua7T+RyOhLQ19dnz8x3cs22kTzsOz/2BAYlLS0N18x3xN1JGmJg+jk6OpTqme+kwpvFzcZuU5zV/OHQ0KYoFzXnsgQej8fj8ShsUKvRXQ3s1caeAKtgrwb2BAC1tKFDuTwfP9w5aAGYLQAAAACgC4yyAAAAAF1glAUAAADowinetg13DgAAAMBQYxEaihDSs1f370qTV9vczEAUqmLRnS1L2qcvDSa7WzU2ZII9B+wJKIUrK6riatKOhjloaehhqLa5mbjHGK4YAwAAAHSBURYAAACgC4yyAAAAAF1glAUAAADoQuUoW9PYeLOqSsbIX9drlUovl5d3UffnISlHdzWwV4DJ7mY/7NVobG29XVPT2dWFKwGlsJdFQxjfZRhDY9mXKuvq1v74Y+rFi3l3765JT2cyNN2o+QuLss7OqP3788vLx40e/Wdz8/EPP3QfS+OUvlfu3485dKhaLK7Zs8dQX5++QOphoBp4K8Bwd7Mc9mpUi8Xvp6Q0PX1qbWLyoL4+Zv78mHnzmExAKexl0RzGdxmu0Bj3pY0//WTC5c6aOPFube3t6mpmgjKDmnPZI/n5rVLp7e3bszds2LRkyWo6P4ncefhw5cGDg+r7lJycvLt36UupF7qroUYFqMVkd7Mf9mrsyspysbO7sWXLr+vWpURG7jxzhuEElMJeFg1hPM5gfIMPdl/qkMuLRaLaJ08GbFnW2VksEv3Z3NxrfWdXF/HyBolkwZQpHn0+ij1sbLylzZdDKDuXPX3jxhvTpxvo6SGE3pgxY93Ro1VisQM9c25Ymppmr1/f2NZG/iXC+vrRxsZ0JKMU3dVQowLUYrK72Q97Nb4MDn4qlRLLYyws2mWypx0dIw0NGUtAKexl0RDG4wz50PcePTpbXNxrZWRgoNmIEeqFHtS+9HNh4ceHDzvZ2Ajr6190dd27fPn1iorIfftKd+7U19VFCJ0vKVmdnl60ZctvpaUxBw+OHT26sq5u3uTJe957z0BPb93Ro4b6+jkCgYOlpZ25ubC+/ptz5wQ1Na5jxhDttzx7tmL//htC4bjRo2ubmlIiI192d5++YcOuiIgAV9fu7m73NWuCZsyIDw5GCK1JT7c2NV2zcKF6G04ras5lRQ0N40aPJpYN9PTszM0r6+ooabkva1NTCwaHTDXQXQ3sFWCyu9kPezVMuFzbv/5WwI+XLr3u64t9iGVDWTSE8V2GMTT5fenRkycffv990jvvXFi/vnTHDplcfuTy5QBXV66BQY5AQDzn58LCN6ZP75DLY3/4ITUq6reNGwU7djyorz/0++8IIV0dnf/curV96dK0lSt3hIc7Wll9+OqrG5csUYTYcebMU6n05tatv23cuH/Fio/S0mSdnXO9vK5VVCCEiquqPMaOvVxWRjw5v7yc389c99hRcy7b1NY2kstVPDQxMmrCd6al8HNh4YrvviOWD+Tm/uPAAYRQ0ZYtijc/TdhZDQoN+Q0cFPZUY1dW1uXy8sy4OCzRe2FPWeiG6ziDEHIdM0Zx5ketAfelYpHI0sRk4dSpCCFDff2X3N1zSkvfe/nlED+/U0VF8729O+TyczdvXtiw4cr9+4Z6ejo6OpfLyxFCPg4OVysqVsyZgxCaPH6838SJ/YW4ev/++y+/TAzzAa6ube3tt6urX3Jz23/xIkLo0r17r3p7p1++3CCRyJ4/b372bApbJwqkZpS1MDZWXGdACLW2t48aOZKSljWx2Nd3sa8vQujTI0d8nZzenDmTmbjsrAaFhvwGDgobqiGVy7f+8kuxSHQ8Nlbtq4XUYkNZmIHrOIMQEre2lv35Z6+VvjyeJjdMkdyXGtvaLE1MFA+Nudy6lhaE0FszZ87fulUql5+5cWPSmDHONjbXKirapNKvs7IUT3a2sSEWVO8S4tbWnuf0JkZGdS0tL7m7/z01VSqXXyor++ebbwobGi6Vlck6O/keHjocjtpbTStqRlkbMzNRQ0OAqytCqE0qfdjUZDeM/9zlkK/GkN/AQcFeDVln59vJyY6WlsdjY4nvQdkAe1mGg7u1td/8+muvlf96/31rdUdZ8vuStampuLVV8VAskRD962JnN2nMmAu3b/9SWBgyaxbxTBMuNyM2drDJ2JiZKa5/PO/qqmtpsR01aqShoa+TU355eenDh5PGjJnp7HyprKxDLn/Z3V2tLWYCNd/LLvDx2X/x4tOODuJGuwk2NpPouY6hHp61tbWpKWPhWF4NzQ35DRwU7NVIzc3V4XB2hIezZ4hlQ1mYx/BxhriOmhEb2+s/TXIgvy/5TZwoaW/PKi5GCD15+jTj+vV53t7EPwXNmHHi+vXL5eWLp08nntnR2XnsyhXiX/91/nx+eTmZZOZ6eR3Jz2+XyRBC3+fl2VtYTB4/HiEU6O6ekpPj6+Skw+H4T5x4pbz8clkZa7+UpexcNmru3FtVVVPXrRtrYSFubc2Ii9PVoeuvSn1z7txXP/9MLI9btQohlBkXR3xk7je9OXNoSkZ5OJqroUYFqMVkd7Mf9mr8XFBQLBLZREcr1pxes2amszOTOfSFvSwawnicwfgGJ78vmY0YsSsi4u8HDrjY2VXW1c339g6eNYv4pyW+vp8fP/7a1KnEBWFjLndXRMT/HDq0LydHT1fX3sIiks8nk0zUnDnXKyqmrl9va2bWIJHs++ADPR0dhNBsN7cvMjOJW4tHm5jo6OjYjRrF5u8jOPUpKVS1VS0WP3n61M3evtfnoOE58x2uajA28x0buls1JjNhbTXwJsC2ssDMd9SGlsrld2prx5ib2w7UrKyz805trbONjXGPe+LIIHYh97FjiV8HaZHa5maftWspO5cljLe0HK89v4ej25CvxpDfwEGBaigFZRnauPr6Ux0dyTzTQE/Px8FBjRBDYBfSpms4AAAAgHaBURYAAACgC4yyAAAAAF04xdu24c4BUOk/GzaQfOa8r76iI4HppBNgQAE92wg0JMD3qx7PR49whQbDjUVoKEKI003//IXV1dXjx4+nOwpVsejOlu72t+nrm5OYv6JZT+8TuZyOBPT19TvZMYGGnp6enJ5tJI/JnZ+dCSiVlpZmieOWFrFY/Pbbb2vejiZV1bBHtDT0MKQoF1wxBgAAAOgCoywAAABAFxhlAQAAALrAKAsAAIAaPeZhAv+LylFWJBIVFhZ2dHRQ2GZ/JBJJbm5uV1cXA7HUQ3eGTFabnQmwCvZqNDQ0FBcXs+S+MwX2v09Vw5g/xg5Vd6ulwuOR/gGRWQ9pyktbUTPKymSyoKAgX1/fqKgoBweHkpISSprtT15eno+PT2BgoEwmozWQ2mjNkOFqszABVsFeDaFQOG3atOnTp0dHR1tbW29jzW/z2P8+VQ1X/ng7VO2tbr6UGLn+hv9HG/hjaUtOO1Ezyh48eFAikdTW1hYVFW3dujW6x5QOlCspKVm2bNnatWvJvyQpKSk7O5u+lHpRI8NBYbLa7EyAVbBXIz4+3s3NTSQSXbt27ciRI5s3b2Y4AaXofhfQDeNxBmOHqt9rohMb4zJ5mzN3hvEGNxvAMEDNbAEZGRlhYWGGhoYIobCwsJiYmAcPHjg5OVHSeC/W1taFhYVisZj8SyoqKqysrOhIRik1MhwUJqvNzgRYBXs1vv7667a/JrseN27cs2fP2trajI2NGUtAKbrfBXTDeJwh36ECgeDkyZO9VsbExJirO/GOmr3W+Thre3y+1+rMJTDEKkHNuWxlZaXjXzMzGBoa2tvbl5Obp1cNtra2WH7PTh7dGTJZbXYmwCrYq2Fqajrmrz+llJqaGhwcjH2I1Yr3qWoY88fYoeptdfPV1MTb/vGbl8IYqxQ157JisbjnfmBqatrY2EhJy5o4duxYaGgosZycnEz8zRehUOhIbqom1sJebewJsAp7qhEfH5+bm5uTk4Ml+rBFyXGmpaWFWDAzM1OsHLBDPT09PT09Nci939AD6Gy+cjyzPWA5fyxCUmHmt5nc4HT4OrY/1IyylpaWikscxC1qFhYWlLSsiZCQkJCQEITQqlWr/Pz8wsPDcWdEDezVxp4Aq7ChGu3t7Zs2bSooKLhw4YLaVwuBejQ/zpSVlbm6uhLLjx8/trGxIdmh9fX1d+7c6bVy1qxZXNIzpfcNTeplnU/unE5MLuD9tp2PClNTa/w3vuUG57H9oWaUtbOzq6ys5PP5CKHW1tbq6mp7e3tKWgZ9Ya829gRYBXs1ZDLZokWLnJyczp8/T3w9DLTLpEmTev49efIdKhAIEhISeq08fPiwra2teqHJ4vLCP/s4KyIxXeDuduqKXfBOPtmAwxE1o+zixYt3794dFhZmbGyclJTk4uLi4eFBScuUcHZ2JvsZTRtgrzb2BFgFezX27Nmjo6Ozd+9eDofDZFzQC1XHGfIdyufziY93zOM6B60MTN24L9VdxAv6xxQ4kVWBmruf4uLi3N3dHR0dp06dmpKScvToUV1dXUpa7ishIYHD4bi5uSGEjIyMOBzOgF9ExcbGzp07l6Z8+lIjw0FhstrsTIBVsFfj6NGj58+f19HR4fzl0qVLTCagFN3vArphPM5g7NBBbLWeuf/SIKPjG8/qTfGDE1mVqJz5TigUNjU1eXl5GRgY9FwPM9/R0X5/1WZs5rv+EhieM9+xYedXCnsCSsHMd0MitFR4s7jZ2G2KM9wKoISiXNRcMSbweDwej0dhg0AF7NXGngCrQDXA8MPl+fjhzkELwGwBAAAAAF1glAUAAADoAqMsAAAAQBdOVVUV7hwAlY5MmEDymWGVlXQkMIF0AgyopGcbgYby8vJwhZ49ezau0GB40mPg/kO4x5jJ9hFCJO8xpi8N9txjjP32Wuy3+GJPoD+47jGmpBpsutFXO0IPQ4pywRVjAAAAgC4wygIAAAB0gVEWAAAAoAuMsgAAAKghleLOgH2oHGVFIlFhYWFHRweFbfZHIpHk5uZ2dXUxEEs9dGeIvQJMdjf7QXcoxc6syMPYrRhDq9trUuHxSP+AyKyHNOWlragZZWUyWVBQkK+vb1RUlIODQ0lJCSXN9icvL8/HxycwMFAmk9EaSG10Z4i3Agx3N/tBd/TFzqwGBWO34gqtSa81X0qMXH/D/6MNMJ17L9SMsgcPHpRIJLW1tUVFRVu3bo2OjqakWaVKSkqWLVu2du1a8i9JSkrKzs6mL6Ve1MiQVe0PiMnuZj/oDqXYmRV5GI8zGPco9XtNdGJjXCZvc+bOMB7MgtcLNbMFZGRkhIWFERMOh4WFxcTEPHjwwMnJiZLGe7G2ti4sLBSLxeRfUlFRYWVlRUcySqmRIavaHxCT3c1+0B1alBV5GI8z5EMLBIKTJ0/2WhkTE2NuruYkOWr2WufjrO3x+V6rM5fAEKsENeeylZWVjo6OxLKhoaG9vX15eTklLfdla2uL5ffs5NGdIfYKMNnd7AfdoRQ7syIPY7diDK1erzVfTU287R+/eSmMsUpRcy4rFouNjY0VD01NTRsbGylpWRPHjh0LDQ0llpOTk4l5JYVCoWI3AuphZ3cPW+zsDnZmRQdKjjMtLS3EgpmZGflXeXp6enp6DjJfVcj2WmfzleOZ7QHL+WMRkgozv83kBqfD17H9oWaUtbS0bGtrUzyUSCQWFhaUtKyJkJCQkJAQhNCqVav8/PzCw8NxZzREsLO7hy12dgc7s6KD5seZsrIyV1dXYvnx48c2NjYkX1hfX3/nzp1eK2fNmsXlqnlSSbbXOp/cOZ2YXMD7bTsfFaam1vhvfMsNzmP7Q80oa2dnV1lZyefzEUKtra3V1dX29vaUtAxYCLqbVdjZHezMip0mTZrU3d2txgsFAkFCQkKvlYcPH7a1tVUvE7K9xuWFf/ZxVkRiusDd7dQVu+CdfDUDDgvUfC+7ePHi3bt3Ex+CkpKSXFxcPDw8KGmZEs7OzuQ/HoIBsby7hxt2dgc7s6IV88cZPp9/oQ+1h9hB9RrXOWhl4JP0fak/CnhBS6bAiawK1IyycXFx7u7ujo6OU6dOTUlJOXr0qK6uLiUt95WQkMDhcNzc3BBCRkZGHA4nJydH9UtiY2Pnzp1LUz59qZEhq9ofEJPdzX7QHVqUFXkYjzMY96hB9Jqeuf/SIKPjG8/qTfGDE1mVOOpdqVBKKBQ2NTV5eXkZGBj0XA8z3zHZ/jZ9fZIz330il2sSqL/u1tfXZ8/Md3LNtlFzjO38bHj3kc8qLS0N18x3xN1JGtLS6edIvpb0viQV3ixuNnab4qzmD4eGNkW5qPlelsDj8Xg8HoUNAjaD7mYVdnYHO7MCqpHuNS7Px4+BfLQdzBYAAAAA0AVGWQAAAIAuMMoCAAAAdOFUVVXhzgFQ6ciECSSfGVZZSUcCE0gnwIBKerYRaCgvLw9X6NmzZ+MKDYYnPQbuP4R7jJlsHyFE8h5j+tJgzz3GGG+vJeC9xZcNCfQH1z3GlFRjaN9jTNPLhxtFueCKMQAAAEAXGGUBAAAAusAoCwAAANAFRlkAAADUkEpxZ8A+VI6yEokkNze3q6uLwjb7IxKJCgsLOzo6GIilHrozxF4B7AmwCvZqMPnuIw97WTTU0NBQXFyM5W4+jKVTd6ulwuOR/gGRWQ9pyktbUTbK5uXl+fj4BAYGymQyqtpUSiaTBQUF+fr6RkVFOTg4lJSU0BpODXRniL0C2BNgFTZUg7F3H3lsKIsmhELhtGnTpk+fHh0dbW1tvW3bNsZCYyydJlvdfCkxcv0N/482wHTuvVAzypaUlCxbtmzt2rWUtKbawYMHJRJJbW1tUVHR1q1bo6OjB3xJUlJSdnY2A7kR1MiQVe2zPwFWwV4NJt995GEvi4bi4+Pd3NxEItG1a9eOHDmyefPmAV9C1XEGY+nU2Or/JTqxMS6TtzlzZxgPZsHrhZrZAqytrQsLC8ViMSWtqZaRkREWFmZoaIgQCgsLi4mJefDggZOTk4qXVFRUWFlZMZCb2hmyqn32J8Aq2KvB5LuPPOxl0dDXX39NTLOKEBo3btyzZ8/a2tqMjY1VvISq4wz50gkEgpMnT/ZaGRMTY26u5iQ5amw1Qgh1Ps7aHp/vtTpzCQyxSlBzLmtra8vYb8wrKysdHR2JZUNDQ3t7+/LycmZCk0R3htgrgD0BVsFeDSbffeRhL4uGTE1Nx4wZQyynpqYGBwcPPNhQBGPp1Nvq5qupibf94zcvhTFWKSpnvmOGWCzu2fGmpqaNjY1Kn3ns2LHQ0FBiOTk5mZhXUigUKvZg7Bmys332J8AqUA2ltLEsLS0txIKZmZliZXx8fG5urop51Ck/zpAvnaenp6enp3pRFNTZ6s7mK8cz2wOW88ciJBVmfpvJDU6Hr2P7o32jrKWlpeKaBnFrpYWFhdJnhoSEhISEIIRWrVrl5+cXHh7OtgzZ2T77E2AVqIZSWleWsrIyV1dXYvnx48c2Njbt7e2bNm0qKCi4cOGCimuwlB9nyJeuvr7+zp07vVbOmjWLyyV7UqnmVnc+uXM6MbmA99t2PipMTa3x3/iWG5zH9kf7Rlk7O7vKyko+n48Qam1tra6utre3x53Uf6E7Q+wVwJ4Aq0A1lNK6skyaNKm7u1vxUCaTLVq0yMnJ6fz588RXpIwhXzqBQJCQkNBr5eHDh21tbUnGUnOrubzwzz7OikhMF7i7nbpiF7yTTzbgcKR9f5Vi8eLFu3fvJj7rJSUlubi4eHh4qH6Js7OzjY0NUwmqkyGr2md/AqwC1VBK28uyZ88eHR2dvXv3kh9iqTrOkC8dn8+/0Af5IbYv8lvNdQ5aGfgkfV/qjwJe0JIpcCKrAjXnsgkJCevXryeWjYyMEELZ2dlz5syhpPFe4uLiioqKHB0dx48fX19fn52draurq/olsbGxdGTSHzUyZFX77E+AVbBXg8l3H3nYy6Kho0ePFhQU6Oj833nIH3/88eKLL6p4CVXHGYylG8RW65n7Lw0yemX1Wb89G+BEViVOz8sFNKFjviShUNjU1OTl5WVgYEBtLKqypS9D1e1v09cnOfPdJ3I5HQno6+uzZ+Y7uWbbSB7d3a02vAn0V5a0tDRcM98RdydpiIHp5+jYo6ie+U4qvFncbOw2xVnNHw4NbYpyad/3sgQej8fj8XBnoQrdGWKvAPYEWAWqoRSURW3aUDouz8cPdw5aQPu+lwUAAAC0BYyyAAAAAF1glAUAAADowqmqqsKdA6DSkQkTSD4zrLKSjgQmkE6AAZX0bCPQUF5eHq7Qs2fPxhUaDE96DNx/yORdjuy5xxhX+wghkvcY05cGe+4xxnt/L/ZbfNmQQH9w3WNMSTXYdKOvdoQehhTlgivGAAAAAF1glAUAAADoAqMsAAAAQBcYZQEAAFBDKsWdAftQOcpKJJLc3Nyuri4K2+yPSCQqLCzs6OhgIJZ66M6QyWorxf4uYBL2amDfH5RiZ1bkNTQ0FBcXY7mbD2Pp1A0tFR6P9A+IzHpIU17airJRNi8vz8fHJzAwUCaTUdWmUjKZLCgoyNfXNyoqysHBoaSkhNZwamAgQ8aqrRT7u4BJbKgG3v2hP+zMiiShUDht2rTp06dHR0dbW1tv27aNyegYS6d26OZLiZHrb/h/tAGmc++FmlG2pKRk2bJla9eupaQ11Q4ePCiRSGpra4uKirZu3RodHT3gS5KSkrKzsxnIjaBGhoPCZLWVonsDtQv2amDfH5RiZ1bkxcfHu7m5iUSia9euHTFDQzcAACAASURBVDlyZPPmzQO+hKrjDMbSqR9adGJjXCZvc+bOMB7MgtcLNbMFWFtbFxYWisViSlpTLSMjIywsjJj+MCwsLCYm5sGDB05OTipeUlFRYWVlxUBuamc4KExWWym6N1C7YK8G9v1BKXZmRd7XX39NzPCKEBo3btyzZ8/a2tqMjY1VvISq4wz50gkEgpMnT/ZaGRMTY26u5iQ5avZa5+Os7fH5Xqszl8AQqwQ157K2traM/ca8srLS0dGRWDY0NLS3ty8vL2cmNEl0Z8hktZVifxcwCXs1sO8PSrEzK/JMTU3HjBlDLKempgYHB6seYimEsXTqhW6+mpp42z9+81IYY5XSvpnvxGJxz93d1NS0sbFR6TOPHTsWGhpKLCcnJxPzSgqFQsUxEXuGWmrIb+CgQDWGjJaWFmLBzMxMsTI+Pj43NzcnJ6e/V+E6ziCEPD09PT09NWxE6VYPoLP5yvHM9oDl/LEISYWZ32Zyg9Ph69j+aN8oa2lpqbiSQ9wOZ2FhofSZISEhISEhCKFVq1b5+fmFh4ezLUMtNeQ3cFCgGkNDWVmZq6srsfz48WMbG5v29vZNmzYVFBRcuHBBxTVYXMcZhFB9ff2dO3d6rZw1axaXS/aksu9Wk3pZ55M7pxOTC3i/beejwtTUGv+Nb7nBeWx/tG+UtbOzq6ys5PP5CKHW1tbq6mp7e3vcSf0X9meooSG/gYMC1RgaJk2a1N3drXgok8kWLVrk5OR0/vx54kt3FhIIBAkJCb1WHj582NbWlmQLvbaaLC4v/LOPsyIS0wXubqeu2AXv5JMNOBxp31+lWLx48e7du4mzh6SkJBcXFw8PD9UvcXZ2JvsZjQpqZKhdhvwGDgpUY0jas2ePjo7O3r17yQ+xDB9nEEJ8Pv9CH+SHWE1wnYNWBj5J35f6o4AXtGQKnMiqQM0om5CQwOFw3NzcEEJGRkYcDkfF1xgaiouLc3d3d3R0nDp1akpKytGjR3V1dVW/JDY2du7cuTTl05caGQ4Kk9VWiu4N1C7Yq4F9f9CirMg7evTo+fPndXR0OH+5dOmS6pdQdZzBWLpBhNYz918aZHR841m9KX5wIqsSR53LBYNEx3xJQqGwqanJy8vLwMCA2lhUZUtfhqpt09cnOfPdJ3K5JoH620B9fX32zHwn12wbycPV3QPCnoBSaWlpuGa+I+5O0pCWTj9HdWip8GZxs7HbFGc1fzg0tCnKpX3fyxJ4PB6Px8OdhSrsz1BDQ34DBwWqAYYfLs/HD3cOWkD7vpcFAAAAtAWMsgAAAABdYJQFAAAA6MIpZnauCQAAAGA4sAgNRQjp2av7d6XJq21uZiAKVbHozpYl7dOXBpPdrRobMsGeA/YElMKVFVVxNWlHwxy0NPQwVNvcTNxjDFeMAQAAALrAKAsAAADQBUZZAAAAgC4wygIAAAB0oXKUbZVKL5eXd9H/JxsRQjWNjTerqmTs+Et+StFdDewVwJ4AqzC58yvFzu5gZ1bkNba23q6p6ezqGlahEULy588vl5dL2tsZi1hZV7f2xx9TL17Mu3t3TXo6Y3EZQNlfWLxy/37MoUPVYnHNnj2G+vpUNduXrLMzav/+/PLycaNH/9ncfPzDD93Hsm76YFqrgb0C2BNgG8Z2fqXY2R3szIq8arH4/ZSUpqdPrU1MHtTXx8yfHzNv3pAPrfDtr79uO3Xq9Jo1M52dmYm48aefTLjcWRMn3q2tvV1dzUxQZlBzLnvn4cOVBw8ysyscyc9vlUpvb9+evWHDpiVLVpP41JOSk5N39y4DuRHoroYaFRhiCbAKkzu/UuzsDnZmRd6urCwXO7sbW7b8um5dSmTkzjNnBnwJVccZNUJTS1BTc+zKFVsSP9rpkMuLRaLaJ08GfKass7NYJPqzubnX+s6uLuLlDRLJgilTPPp8FHvY2HhLmy+HUHYua2lqmr1+fWNbGyWtqXb6xo03pk830NNDCL0xY8a6o0erxGIHlfN7COvrRxsbM5Abge5qqFGBIZYAqzC58yvFzu5gZ1bkfRkc/FQqJZbHWFi0y2RPOzpGqpxrlqrjDPnQ9x49Oltc3GtlZGCg2YgRakfv7OqKOXTo09df337qlOpn/lxY+PHhw042NsL6+hddXfcuX369oiJy377SnTv1dXURQudLSlanpxdt2fJbaWnMwYNjR4+urKubN3nynvfeM9DTW3f0qKG+fo5A4GBpaWduLqyv/+bcOUFNjeuYMUT7Lc+erdi//4ZQOG706NqmppTIyJfd3adv2LArIiLA1bW7u9t9zZqgGTPig4MRQmvS061NTdcsXKj2htOHmnNZa1NTC6aGMVFDw7jRo4llAz09O3Pzyro6ZkKTRHc1sFcAewKswuTOrxQ7u4OdWZFnwuUqTuZ+vHTpdV9f1UPs0AiNEPr67Nlxo0e/MX266qc9evLkw++/T3rnnQvr15fu2CGTy49cvhzg6so1MMgRCIjn/FxY+Mb06R1yeewPP6RGRf22caNgx44H9fWHfv8dIaSro/OfW7e2L12atnLljvBwRyurD199deOSJYoQO86ceSqV3ty69beNG/evWPFRWpqss3Oul9e1igqEUHFVlcfYsZfLyogn55eX8z086CyM+rRv5rumtraRXK7ioYmRUVM/pxE/Fxau+O47YvlAbu4/DhxACBVt2aJ482sp8hUYqgmAntjZHezMSjXFzT6mRkaKlbuysi6Xl2fGxfX3KkqOM+qFdh0zRnHmp7aeoUsfPvzhjz8ubto04KuKRSJLE5OFU6cihAz19V9yd88pLX3v5ZdD/PxOFRXN9/bukMvP3bx5YcOGK/fvG+rp6ejoXC4vRwj5ODhcrahYMWcOQmjy+PF+Eyf2F+Lq/fvvv/wy8QkjwNW1rb39dnX1S25u+y9eRAhdunfvVW/v9MuXGyQS2fPnzc+eTWHr1JPaN8paGBsrLqcghFrb20eNHKn0mYt9fRf7+iKEPj1yxNfJ6c2ZMxlMk0bkKzBUEwA9sbM72JmVChV1df6ffUYsl+7YYWVqKpXLt/7yS7FIdDw2VsU1WM2PM2qHFre2lv35Z6+Vvjwe+VvweoYu2bYt5tChLaGhliYmA76wsa2t59OMudy6lhaE0FszZ87fulUql5+5cWPSmDHONjbXKirapNKvs7IUT3a2sSEWVO8S4tbWnleJTIyM6lpaXnJ3/3tqqlQuv1RW9s833xQ2NFwqK5N1dvI9PHQ4HJJbzTDtG2VtzMxEDQ0Brq4IoTap9GFTk90w+9Oa2CuAPQHQEzu7g51ZqeBsY1OfkqJ4KOvsfDs52dHS8nhsLPHtMgtD362t/ebXX3ut/Nf771uTHmV7hhbU1Ahqapb3yGThjh2rX3ttrbIvO61NTcWtrYqHYomE6F8XO7tJY8ZcuH37l8LCkFmziGeacLkZsbEkU1KwMTNTXP943tVV19JiO2rUSENDXyen/PLy0ocPJ40ZM9PZ+VJZWYdc/rK7+2DbZ4z2jbILfHz2X7z4xowZIw0NU3JyJtjYTBromgnP2tra1JSpBGmnRgWGWAKgJ3Z2BzuzIi81N1eHw9kRHs4hfYZE1XGGfOgAV1ficwwlPMeN6znYz9q06Zt33unvlzx+EydK2tuziosXTJny5OnTjOvXo+fOJf4paMaME9evXy4v//bdd4lndnR2HrtyJcTPDyH0r/PnfRwd/V1cBsxnrpfXkfz8JdOnGxkYfJ+XZ29hMXn8eIRQoLt7Sk6Or5OTDofjP3HijtOn22Wyz4OCqKoD5agZZb85d+6rn38mlsetWoUQyoyLo7D7e4qaO/dWVdXUdevGWliIW1sz4uJ0dQa4hytqzhw6MukP3dVQowLUwp4AqzC58yvFzu5gZ1bk/VxQUCwS2URHK9YM+ONRqo4zaoRmntmIEbsiIv5+4ICLnV1lXd18b+/gWbOIf1ri6/v58eOvTZ1KXBA25nJ3RUT8z6FD+3Jy9HR17S0sIvl8MiGi5sy5XlExdf16WzOzBolk3wcf6OnoIIRmu7l9kZlJ3Fo82sRER0fHbtQoNn8fwen54YUmdMyXVC0WP3n61M3evtcVleEz852GFdA8Dfq6gCpsyISxHNjZHWzLCma+oza0VC6/U1s7xtx8wB/Xyjo779TWOtvYGPe4J44MYhdyHzuW+HWQFqltbvZZu1YrrxgTxltajtee397RAXsFsCcAemJnd7AzK0AVrr7+VEdHMs800NPzcXBQI8QQ2IW06RoOAAAAoF1glAUAAADoAqMsAAAAQBdO8bZtuHMAAAAAhhqL0FCEkB4Dd/oxeT/h8LnHWMP26UuDDXf2EtiQCfYcsCegFNxjPNxCD0O1zc3jx4+HK8YAAAAAjWCUBQAAAOgCoywAAABAFxhlAQAAALpQOcq2SqWXy8u7urspbLM/NY2NN6uqZJ2dDMRSD93VYLLaSrG/C5gE3aEU9rJoqLG19XZNTWdXF/OhMZbucXNz6cOHz5nd6sq6urU//ph68WLe3btr0tOZDE03yv7C4pX792MOHaoWi2v27CE/u6EaZJ2dUfv355eXjxs9+s/m5uMffug+dix94dRDdzUYq7ZSWtEFTILuUApvWTRULRa/n5LS9PSptYnJg/r6mPnzY+bNYyw6rtKV/fnnB/v2SeVy8xEjqsTiuAULFDPt0G3jTz+ZcLmzJk68W1t7u7qamaDMoOZc9s7DhysPHmRmLzySn98qld7evj17w4ZNS5asJvGpJyUnJ+/uXQZyI9BdDSarrZQaXTCEQXcohb0sGtqVleViZ3djy5Zf161LiYzceebMgC+h6jiDsXTbTp2a7eZ2PT7+/Pr1e957b8fp06qf3yGXF4tEtU+eDNiyrLOzWCT6s7m51/rOri7i5Q0SyYIpUzz6fEB82Nh4i30XaQaFmnNZS1PT7PXrG/+acZdWp2/ceGP6dGKKjzdmzFh39GiVWOyg8s9JC+vrRxsbM5Abge5qMFltpdTogiEMukMp7GXR0JfBwU+lUmJ5jIVFu0z2tKNjpKGhipdQdZwhX7p7jx6dLS7utTIyMNBsxAj1Qu+KiOh8/pxYth81qlUqlXV29jeT/M+FhR8fPuxkYyOsr3/R1XXv8uXXKyoi9+0r3bmTmD/nfEnJ6vT0oi1bfistjTl4cOzo0ZV1dfMmT97z3nsGenrrjh411NfPEQgcLC3tzM2F9fXfnDsnqKlx/Wse4pZnz1bs339DKBw3enRtU1NKZOTL7u7TN2zYFRER4Ora3d3tvmZN0IwZxBR4a9LTrU1N1yibcB47akZZYu5iZt5RooaGcaNHE8sGenp25uaVdXXYjyk90V0NJqutFPu7gEnQHUphL4uGTLhck7/maPvx0qXXfX1VD7EUwlg68xEjEEK3qqok7e3f/fbbmoUL+xtiHz158uH33+95772FU6d2yOXv7d175PLld196iWtgkCMQzPf2JobhN6ZP75DLY3/4ITUqKsDVtVUqXZKYeOj331fMmaOro/OfW7d2RUT4TZyIELohFMbMn7/Y1zfj2jUixI4zZ55KpTe3bh1paPjHvXsf/vDD1c2b53p5XauoCHB1La6q8hg79nJZGfHk/PLyb995h8FSDYL2zXzX1NY2sscMhSZGRk397I4/Fxau+O47YvlAbu4/DhxACBVt2aI4JAH1kO8CwADoDqpI2tuJBVMjI8XKXVlZl8vLM+Pi+nsVJccZpaEH5DpmjOLMT219Q/+Yn3+qqMjB0vIVL6/+XlUsElmamCycOhUhZKiv/5K7e05p6Xsvvxzi53eqqGi+t3eHXH7u5s0LGzZcuX/fUE9PR0fncnk5QsjHweFqRcWKOXMQQpPHjyeGWKWu3r///ssvEx9uAlxd29rbb1dXv+Tmtv/iRYTQpXv3XvX2Tr98uUEikT1/3vzs2RQeT8NS0ET7RlkLY2PFlRyEUGt7+6iRI5U+c7Gv72JfX4TQp0eO+Do5vTlzJoNpDmXkuwAwALqDEhV1df6ffUYsl+7YYWVqKpXLt/7yS7FIdDw2VsU1WM2PM31Dk3yhuLW17M8/e6305fHI3zClNPS2sLCE0NDTRUXBSUnXv/rKXNm2N7a1WZqYKB4ac7l1LS0Iobdmzpy/datULj9z48akMWOcbWyuVVS0SaVfZ2UpnuxsY0MsqN5Rxa2tFj2uwJsYGdW1tLzk7v731FSpXH6prOyfb74pbGi4VFYm6+zke3jocDgkt5ph2jfK2piZiRoaAlxdEUJtUunDpiY7+NOazIIuYBXoDko429jUp6QoHso6O99OTna0tDweG9vfVVOaQpN3t7b2m19/7bXyX++/b016lO0V+vSNGy52dpPs7HQ4nNd9fT89evSmSPSyu3vfF1qbmopbWxUPxRIJsde52NlNGjPmwu3bvxQWhsyaRTzThMvNiI0d7NbZmJkprso87+qqa2mxHTVqpKGhr5NTfnl56cOHk8aMmensfKmsrEMuV5okS2jfKLvAx2f/xYtvzJgx0tAwJSdngo3NpIGumfCsra1JfzwEA1KjCwB9oDvokJqbq8Ph7AgP55A+Q2L+OBPg6kp8uqLK4T/+0NPR2b9ixQhDw99KSxtbW/v7gt9v4kRJe3tWcfGCKVOePH2acf264jc/QTNmnLh+/XJ5+bfvvks8s6Oz89iVKyF+fgihf50/7+Po6O/iMmAyc728juTnL5k+3cjA4Pu8PHsLi8njxyOEAt3dU3JyfJ2cdDgc/4kTd5w+3S6TfR4URGEdqEXNKPvNuXNf/fwzsTxu1SqEUGZcHLXdrxA1d+6tqqqp69aNtbAQt7ZmxMXp6gzwe6SoOXPoyKQ/dFeDyWorpUYXDGHQHUphL4uGfi4oKBaJbKKjFWtOr1kz09lZxUuoOs5gLN2uiIh/HDjgsWbN2NGj65qbty9dyrO2VvpMsxEjdkVE/P3AARc7u8q6uvne3sGzZhH/tMTX9/Pjx1+bOpW4IGzM5e6KiPifQ4f25eTo6eraW1hE8vlkkomaM+d6RcXU9ettzcwaJJJ9H3ygp6ODEJrt5vZFZiZxa/FoE5P/z97dRzV1pQsD3wkJCcqXSIEACqGIhI8KFK3Sq5XoXXW6bme0TNGoOGNhCnMdbqVV5ipO571eWvADS6vOKl4pbRWlA9S2trSjogzjR9UgFiMtCCagWIEAIUEJSQrvH5myHAh4SM4++wSe3/KPEJP9POfZO2fnnJxkc7lc0YwZbP6UhGPdmYoJwbFeUqta3fPggcTPb8TJHFj5jrGV7/B1AV3YkAljObC/Ox4FK9+xOfS9np6uvr65ItFjx5LeaKxva/N1d/d5XLMGk6m+rS3Y29v5kSv1qDAP7DB/f/O3g+xIm0YTlZlpl2eMzWZ7es4m/V2FKQ66gFWgOwBdfGfM8J0xg8ojhXx+TGAglUc68nhRAQFWJDMJBjb5M0sAAADAZAWzLAAAAIALzLIAAAAALpzaXbtI5wDo9LesLIqPfP6tt3AkMJ9yAgy4imcbgY0U5L5rFHHvHqnQYKrxWLMGIcQZwr9+YWtr6+zZs3FHoSsW7mxxt7+Lz3ensH6Fhsf7o9GIIwE+n29ixwIaPB7PiGcbqWNy8LMzAYuOHj3qSeKSFrVavX79etvbsaWqNvaInYaegobLBWeMAQAAAFxglgUAAABwgVkWAAAAwAVmWQAAAPR4ZHUo8E90zrJarbaqqmpwcJDGNtkQyzoqlUoulw8MDNhp++xPgFWIV4Odrwh2ZkUdwfwJjihrt1qvLE2JW5xScRdTXvaKtlm2uro6KioqPj7eYDDQ1SYbYlnBYDAkJCTExsampqYGBATU1dXZV/vsT4BV2FANdr4i2JkVdaTyJzuirN5qzfm8lO3X4l7PkvpjS84+0TPL1tXVbdiwITMzk5bWaI+Vn59/5swZnEn9i6KiIq1W29bWVlNTk5ubm/bIsh520T77E2AV4tVg8tVHHTuzoo7gfobgiLK+11Sf7sgoF+8s3ysTT2w1gCmAntUCvLy85HK5Wq2mpTXaYzU1NT3xxBM4k/oXZWVlMplMIBAghGQyWXp6+u3bt4OCguylffYnwCrEq8Hkq486dmZFHcH9DPURpVAoTpw4MeLO9PR0d2sX7bGy10z3K3ZnX4zcUr4KplgL6DmW9fHxYew75kzGsk5zc3Pgz+tUCAQCPz+/xsZGO2qf/QmwCvFqsPMVwc6sqCOYP8ERZd1Wa74tzLsRl71zLcyxFtnryndUfPLJJ2vWrDHfPnjwoPk3X5RKZSC1pZqsplarnZ2dh/90dXXt6uqyo/bZnwCrQDUmjd7eXvMNNzc36s+ifT9DfURFRERERERYF2WYNVtt0lwqLe9fnCz1R0ivLH+vXJhYDB/HjmUyf5Nn9erVQ0NDQ0NDmzZtOnr0qPk27ikWIeTp6dnX1zf8p1ar9fDwsKP22Z8Aq0A1JoeGhgb3n7W3t1N/Iu37GeojqqOjo2oU/US+TGPlVpt66k/mbdl3VmNCGnlh4Z24TS9L4Dh2LJP5WJYUkUjU3NwslUoRQjqdrrW11c/Pz47aZ38CrALVmBzmzp3LwI+6U0F9RCkUipycnBF3HjlyxMfHh2IsK7daKF735hsVSXnFijDJF5dEiXulVANORZP5WHZYcHCwt7c3Y+FWrly5f/9+87vR/Pz8kJCQ8PBwO2qf/QmwClQDmNG1n6E+oqRS6elRqE+xthAGJ2yK7yk+VHhMIU5YFQ0HsuOgZ5bNycnhcDgSiQQh5OTkxOFwKisraWmZllibN29evnw5pnxGy8jICAsLCwwMjImJKSgoKCkpcXBwsKP22Z8AqxCvBpOvPnvPijqC+xmCI2oCW81zj1ub4FS64yte9CI4kB0XrHxHfwtmSqWyu7s7MjLS0dGRyfYZW/lurASm5sp3uLvbasQTsAhWvnvsw3CMKLpXvtMrr9dqnCXRwVZ+cWhyGy4XfC6Li1gsFovF9ts++xNgFagGoJc9jCihOGoR6RzswJT4XBYAAAAgAmZZAAAAABeYZQEAAABcOC0tLaRzAHQ6/uSTFB8pa27GkcCTlBNgQDOebQQ2qq6uJhV6yZIlpEKDqYnHwPWHU/MaY1LtI4QoXmOMLw32XGNM/PJa4pf4Ek9gLKSuMaalGmy60Nc+Qk9Bw+WCM8YAAAAALjDLAgAAALjALAsAAADgArMsAAAAekxkQaCpgs5ZVqvVVlVVDQ4O0tgmG2JZR6VSyeXygYEBTO0TrwDuDbQv0B0WsTMr6gh2K8HQ1vaaXlmaErc4peIuprzsFW2zbHV1dVRUVHx8vMFgoKtNNsSygsFgSEhIiI2NTU1NDQgIqKuroz0E2QowsIH2BbpjNHZmNSEEu5VUaFt6TXM+L2X7tbjXs2A59xHomWXr6uo2bNiQmZlJS2u0x8rPzz9z5gzOpP5FUVGRVqtta2urqanJzc1NS0ujt30mq20R7g20L9AdFrEzK+oI7mcIjijre0316Y6McvHO8r0yMayCNwI9qwV4eXnJ5XK1Wk1La7THampqeuKJJ3Am9S/KyspkMplAIEAIyWSy9PT027dvBwUF0dU+k9W2CPcG2hfoDjvKijqC+xnqoRUKxYkTJ0bcmZ6e7u5u5SI5Vvaa6X7F7uyLkVvKV8EUawE9x7I+Pj6MfcecyVjWaW5uDgwMNN8WCAR+fn6NjY00tk+8Arg30L5Ad1jEzqyoI9itBENb12uabwvzbsRl71wLc6xFk3nlu08++WTNmjXm2wcPHjSvK6lUKoeHESZqtdrZ2Xn4T1dX166uLqwRGTbpN9C+sLM72JnV+Hp7e8033NzcqD+L1H4GIRQREREREUFjg1R7zaS5VFrevzhZ6o+QXln+XrkwsRg+jh3LZJ5lV69evXr1aoTQH/7wh0WLFq1bt46ZuJ6enn19fcN/arVaDw8PZkIzY9JvoH1hZ3ewM6txNDQ0hIaGmm/fv3/f29ub4hNJ7WcQQh0dHfX19SPuXLhwoVBo5UEl1V4z9dSfzDt4VXx2txTJCwvvxO14WQLHsWOZzLMsKSKRqLm5WSqVIoR0Ol1ra6ufnx/ppOg06TfQvrCzO9iZ1Tjmzp07NDREOouJUSgUOTk5I+48cuSIj4+PdQ1S7TWheN2bb1Qk5RUrwiRfXBIl7pVaGXBKmBK/ShEcHEz9nantVq5cuX//fvNbwvz8/JCQkPDwcMaiM2DSb6B9YWd3sDMrrBjezyCEpFLp6VGsnmIn1GvC4IRN8T3FhwqPKcQJq6LhQHYc9MyyOTk5HA5HIpEghJycnDgcTmVlJS0t0xJr8+bNy5cvx5TPaBkZGWFhYYGBgTExMQUFBSUlJQ4ODjS2z2S1LcK9gfYFusOOsqKO4H6G4IiaQK/x3OPWJjiV7viKF70IDmTHxWHgJMnUXPlOqVR2d3dHRkY6OjriaH8su/h8iivf/dFotCXQWBvI5/PZs/Kd0bZttB1jg5/UeLMuq6NHj5Ja+c58dZKN7HT5OYrPpTyW9MrrtRpnSXSwlV8cmtyGywWfy+IiFovFYjHpLDCa9BtoX9jZHezMCoyPcq8JxVGLGMjH3k2Jz2UBAAAAImCWBQAAAHCBWRYAAADAhVO7axfpHAAAAIDJxmPNGoQQz8/a35Wmrk2jYSAKXbFwZ8uS9vGlwWR3j48NmRDPgXgCFpHKiq64trRjYw52GnoKatNozNcYwxljAAAAABeYZQEAAABcYJYFAAAAcIFZFgAAAMCFzllWp9dfaGwcZGRdCyZjWQd3hne6uq63tBjI/ZYh8QRYhfiAZGd3EC+LjQjm36XT3bhzxzQ4yHzo+xrNzbt3f2I2dHN7e+axY4XnzlV///3W4mImQ+NG2y8sXrp1K/3DD1vV6jsHDgj4fLqaJR7LOlgzNJhMqYcPX2xsnDVz5o8aTelrr4X5M7qAMvEE2IbsgGRtd7D/dTo+Uvm3qtWvFBR0P3jg5eJyu6MjfcWK9OefZyZ0pEkZsgAAIABJREFUw48//u7QIb3R6D5tWotanfHCC2lMrbOy469/dREKF86Z831b243WVmaCMoOeY9n6u3c3FRUxMxSsiFVQWVn9/fc4k/oXuKtx/OJFnV5/Y/fuM1lZf1q1agvj7/uIJ8AqTA5+i9jZHcTLYiOC+5l9FRUhItG1t9/+Ztu2gpSUvV9+aXubFO364oslEsmV7OxT27cf2Lhxz8mT4z9+wGisVanaenoe27LBZKpVqX7UaEbcbxocND+9U6t9ITo6fNQbxLtdXd+x7yTNhNBzLOvp6npm+/auvj5aWqM9lrKjY6azM86k/gXuapy8du2l+fMdeTyE0EsLFmwrKWlRqwMYXOGEeAKswuTgt4id3UG8LDYiuJ/538TEB3q9+bavh0e/wfBgYGC6QDD6kT/cu/dVbe2IO1Pi492mTbMu9L6kJNNPP5lv+82YodPrDSaTeWiN9plc/saRI0He3sqOjn8LDX0/OflKU1PKoUM39+7lOzgghE7V1W0pLq55++2zN2+mFxX5z5zZ3N7+/FNPHdi40ZHH21ZSIuDzKxWKAE9Pkbu7sqPj3a+/Vty5E+rra26/9+HDVw8fvqZUzpo5s627uyAlZWlY2PysrH1JSYtDQ4eGhsK2bk1YsCA7MREhtLW42MvVdeuLL1q34VjRM8t6uboihJh5RTEZyzq4M1R1ds6aOdN825HHE7m7N7e3M7lXJZ4AqxAfkOzsDuJlsRHB/F2EQhfhP5dFP3b+/K9iYy1OsTi4T5uGEPqupUXb3/9/Z89uffHFsabYez09r3300YGNG1+MiRkwGje+//7xCxd++9xzQkfHSoVixbx55mn4pfnzB4zGzR9/XJiaujg0VKfXr8rL+/Dvf3912TIHLvdv3323Lylp0Zw5CKFrSmX6ihUrY2PLLl82h9jz5ZcP9PrrubnTBYJ//PDDax9//O3OncsjIy83NS0ODa1taQn397/Q0GB+8MXGxvd+8xtmqjRRk3nlu8/k8lf/7//Mtz+oqvrPDz5ACNW8/fbwLslOdff1Tf/5RYgQcnFy6mZ2X0A8AfAo6A66aPv7zTdcnZyoP4uW/YzF0PsqKi40NpZnZIz1rFBf3+EjP6uNDn3s4sUvamoCPD3/PTJyrGfVqlSeLi4vxsQghAR8/nNhYZU3b25cunT1okVf1NSsmDdvwGj8+vr101lZl27dEvB4XC73QmMjQigqIODbpqZXly1DCD01e7Z5irXo21u3Xlm61PwOY3FoaF9//43W1uckksPnziGEzv/wwy/mzSu+cKFTqzX89JPm4cNotq6xOJln2ZWxsStjYxFC/338eGxQ0K+feYZ0RvTwcHYePqGEENL198+YPn1KJQAeBd1Bi6b29rg33zTfvrlnzxOurhSfaPt+ZnRovdGY+/nntSpV6ebN45z+Vet0DT/+OOLOWLGY+rVaFrd6l0yWs2bNyZqaxPz8K2+95W4pga6+Pk8Xl+E/nYXC9t5ehNDLzzyzIjdXbzR+ee3aXF/fYG/vy01NfXr9OxUVww8O9vY23xh/oKp1Oo9HzsC7ODm19/Y+Fxb2+8JCvdF4vqHhf379a2Vn5/mGBoPJJA0P53I4FLeaYZN5lp2svN3cVJ2di0NDEUJ9ev3d7m4Rsz8uSjwB8CjoDloEe3t3FBSwIbTBZFp/8GCgp2fp5s1jnbA1+76t7d1vvhlx519eecWL8iw7IvTJa9dCRKK5IhGXw/lVbOx/l5RcV6mWhoWNfqKXq6tapxv+U63VmkddiEg019f39I0bn8vlqxcuND/SRSgs27yZYkrDvN3chs/K/DQ42N7b6zNjxnSBIDYo6GJj4827d+f6+j4THHy+oWHAaLSYJEtMiVlW7OXlRfmdKfu9EBV1+Ny5lxYsmC4QFFRWPuntPdfms0b2lQB4FHQHS9C1nymsquJyOHvWreM87uBscWio+d0VXY784x88Lvfwq69OEwjO3rzZpdON9QH/ojlztP39FbW1L0RH9zx4UHblyvB3fhIWLPj0ypULjY3v/fa35kcOmEyfXLq0etEihNBfTp2KCgyMCwl5bDLLIyOPX7y4av58J0fHj6qr/Tw8npo9GyEUHxZWUFkZGxTE5XDi5szZc/Jkv8Hw54QEGutAL3pm2Xe//vqtzz4z3571hz8ghMozMujtfltipS5bhiOTseCuRury5d+1tMRs2+bv4aHW6coyMhy4jP6GF/EEWIXJwW8RO7uDeFlsRHA/89nVq7UqlXda2vA9J7dufSY4mJbGx7cvKek/P/ggfOtW/5kz2zWa3WvXir28LD7Sbdq0fUlJv//ggxCRqLm9fcW8eYkLF5r/a1Vs7J9LS/8jJsZ8QthZKNyXlPRfH354qLKS5+Dg5+GRIpVSSSZ12bIrTU0x27f7uLl1arWHfvc7HpeLEFoikfy/8nLzpcUzXVy4XK5oxgw2f0rCYeAkCax8h6P9VrW658EDiZ/fiHNKjK18Z2MCDGBDJozlwP7ueBSsfMfm0Pd6err6+uaKRI8dS3qjsb6tzdfd3edxzRpMpvq2tmBvb+dHrtSjwjyww/z9zd8OsiNtGk1UZuZUOWM8Kc329JxN9NsaxBMAj4LuAHTxnTHDd8YMKo8U8vkxgYFUHunI40UFBFiRzCQY2OTPLAEAAACTFcyyAAAAAC4wywIAAAC4cGp37SKdA6DT37KyKD7y+bfewpHAfMoJMOAqnm0ENlKQ+65RxL17pEKDqcZjzRqEEGcI/9KJra2ts2fPxh2Frli4s8Xd/i4+353C+hUaHu+PRiOOBPh8vokdC2jweDwjnm2kjsnBz84ELDp69KgniUta1Gr1+vXrbW/Hlqra2CN2GnoKGi4XnDEGAAAAcIFZFgAAAMAFZlkAAAAAF5hlAQAA0OOR1aHAP9E5y2q12qqqqsHBQRrbZEMs6+DOkHgFVCqVXC4fGBgglQCrEO8O4glYZO+DhGBVCYbu7Oysra2d+DWMemVpStzilIq7mPKyV7TNstXV1VFRUfHx8QaDga422RDLOrgzJFsBg8GQkJAQGxubmpoaEBBQV1fHfA6sQnxAEk9gtEkwSAhWlVRopVL59NNPz58/Py0tzcvLa9dEvuepOZ+Xsv1a3OtZUn+cKdohembZurq6DRs2ZGZm0tIa7bHy8/PPnDmDM6l/gbsaTFbboqKiIq1W29bWVlNTk5ubm/bI4iFTEPHuIJ6ARfY+SAjuZwh2aHZ2tkQiUalUly9fPn78+M6dO6k+U/Xpjoxy8c7yvTLxxFYDmALoWS3Ay8tLLper1WpaWqM9VlNT0xNPPIEzqX+BuxpMVtuisrIymUwmEAgQQjKZLD09/fbt20FBQaTyIYt4dxBPwCJ7HyQE9zPUQysUihMnToy4Mz093d3aRXveeeedvp8XTp81a9bDhw/7+vqcnZ0f8zTT/Yrd2Rcjt5SvginWAnqOZX18fBj7jjmTsayDO0PiFWhubg78eSEOgUDg5+fX2NhIMB+yiHcH8QQssvdBQrCqBEO7urr6/vyzXIWFhYmJiY+fYhHSfFuYdyMue+damGMtmswr333yySdr1qwx3z548KD5N1+USmUgtaWawFjUavWjrz1XV9euri6iGQHWscdB0tvba77h5uZG/Vm07GesCx0REREREUH98dRDZ2dnV1VVVVZWWn6OSXOptLx/cbLUHyG9svy9cmFiMXwcO5bJ/E2e1atXDw0NDQ0Nbdq06ejRo+bbMMXaztPTc/i0kvliSA8PD6IZAdaxu0HS0NDg/rP29nbqT7R9P2N16I6OjqpR9BP5Ms3o0P39/Vu2bDl9+vTp06fHPPNs6qk/mbdl31mNCWnkhYV34ja9LIHj2LFM5mNZgIlIJGpubpZKpQghnU7X2trq5+dHOinALnY3SObOncvAj7rTG1qhUOTk5Iy488iRIz4+PtaFNhgMv/zlL4OCgk6dOmX+TN0yoXjdm29UJOUVK8IkX1wSJe6VUg04FU2JWTY4ONjb25t0FpPHypUr9+/fL5PJnJ2d8/PzQ0JCwsPDSScF2GUKDhLm9zNSqdT8PoYuBw4c4HK577//PofDGf+RwuCETfGFOw4VhqnECf8ZDQey46DnjHFOTg6Hw5FIJAghJycnDocz5gl9ErE2b968fPlyTPmMhrsaTFbbooyMjLCwsMDAwJiYmIKCgpKSEgcHByYTYBXi3UE8AYvsfZAQ3M8Q7NCSkpJTp05xuVzOz86fP2/5oTz3uLUJTqU7vuJFL4ID2XHBynf0t0C2fcZWvlMqld3d3ZGRkY6Ojo/eDyvfPYr4YmFkExhrkMDKd5MitF55vVbjLIkOtvKLQ5PbcLmmxBljgINYLBaLxaSzAKwGg2RSE4qjFpHOwQ5M5muMAQAAALJglgUAAABwgVkWAAAAwIXT0tJCOgdAp+NPPknxkbLmZhwJPEk5AQY049lGYKPq6mpSoZcsWUIqNJiaeAxcfwjXGDPZPkKI4jXG+NJgzzXGZK/vJX6JLxsSGAupa4xpqQabLvS1j9BT0HC54IwxAAAAgAvMsgAAAAAuMMsCAAAAuMAsCwAAgB4TWRBoqqBzllWpVHK5fGBggMY22RDLOrgzJF4BrVZbVVU1ODhIKgFWIV4N4uPBInZmRR3B/O0wtF5ZmhK3OKXiLqa87BU9s6zBYEhISIiNjU1NTQ0ICKirq6OlWeKxrIM7QzZUoLq6OioqKj4+3mAwMB+dbchWgw3jYTR2ZkUdwfztNLTmfF7K9mtxr2fBcu4j0DPLFhUVabXatra2mpqa3NzctLQ0WpolHss6uDMkXoG6uroNGzZkZmYyHJediFeD+HiwiJ1ZUUcwf7sMrfp0R0a5eGf5XpkYVsEbgZ5ZtqysTCaTmVf9lclkN27cuH37Ni0tk41lHdwZEq+Al5eXXC5funQpk0FZi3g1iI8HO8qKOoL5Uw+tUCj+dxSNRsNA6H9hul+xO/ti5JasVTDFWkDPLNvc3BwYGGi+LRAI/Pz8GhsbaWmZbCzr4M6QeAV8fHyI/KQAOxGvBvHxYBE7s6KOYP52F1rzbWHejbjsnWthjrWInpXv1Gq1s7Pz8J+urq5dXV20tGxjrN7eXoQQl8t1cXHBlM9ouKvBZLUB+7FzPLAzK+oI7meoh46IiIiIiLA94oRDmzSXSsv7FydL/RHSK8vfKxcmFsPHsWOhZ5b19PTs6+sb/lOr1Xp4eNDSsi2xCgsLU1JSEEIxMTE1NTWY8rElQ3a2D+wLO8cDO7OijuB+hnrojo6O+vr6EXcuXLhQKLTyoJJqaFNP/cm8g1fFZ3dLkbyw8E7cjpclcBw7FnrOGItEouGfZdfpdK2trX5+frS0bEus5OTkoaGhoaEhJqdYBqrBZLUB+7FzPLAzK+oI7meoh1YoFG+NYsvnslRDC8Xr3nxD/I+8YsX9a19cEiUmS32sjjn50TPLrly5cv/+/eY3Qfn5+SEhIeHh4bS0TDaWdXBnyP4KACaxczywMyvqCOZPPbRUKj09io+P9TMe9dDC4IRN8T3FhwqPKcQJq6LhQHYc9JwxzsjIqKmpCQwMnD17dkdHx5kzZxwcHGhpmWws6+DOkHgFcnJytm/fbr7t5OSEEDpz5syyZcuYzIE9iFeD+Hiwo6yoI5i/fYTmucetTXD69y1fLTqQBQey4+IMDQ3R1ZZSqezu7o6MjHR0dHz0fhzrJeGLRVe2uKsxVvu7+HyKK9/90Wi0PY3R+Hw+e1a+M+LZRuoYWyyMyVef7VkdPXqU1Mp369evp/54HFWl+Fx7CK1XXq/VOEuig92ty2dyGy4XPceyZmKxWCwW09ggS2JZB3eG7K8AYBI7xwM7s6KOYP72EFoojlrEQD72DlYLAAAAAHCBWRYAAADABWZZAAAAABdOS0sL6RwAnY4/+STFR8p+/mIcvZ6knAADmvFsI7BRdXU1qdBLliwhFRpMTTwGrj9k8ipH9lxjTKp9hBDFa4zxpcGea4wJXl5rRvYSXzYkMBZS1xjTUg0GLvSdZKGnoOFywRljAAAAABeYZQEAAABcYJYFAAAAcIFZFgAAAD30etIZsA+ds6xKpZLL5QMDAzS2yYZY1sGdoVarraqqGhwcxNQ++xNgFeIDkp3dwc6sqCPYrQRLZ21ovbI0JW5xSsVdTHnZK3pmWYPBkJCQEBsbm5qaGhAQUFdXR0uzxGNZh4EMq6uro6Ki4uPjDQYD7Y3bRQLswYYByc7uYGdWFJHtVoKlszq05nxeyvZrca9nwXLuI9AzyxYVFWm12ra2tpqamtzc3LS0NFqaJR7LOrgzrKur27BhQ2ZmJr3N2lECrEJ8QLKzO9iZFXUEu5Vg6awPrfp0R0a5eGf5XpkYVsEbgZ7VAsrKymQymUAgQAjJZLL09PTbt28HBQXR0jjBWNbBnaGXl5dcLler1XQ1aHcJsArxAcnO7mBnVtQR7FbqpVMoFCdOnBhxZ3p6uru7lYvkWNlrpvsVu7MvRm4pXwVTrAX0HMs2NzcHBgaabwsEAj8/v8bGRlpaJhvLOrgz9PHxIfKNfvYkwCrEByQ7u4OdWVFHsFsJls660JpvC/NuxGXvXAtzrEX0HMuq1WpnZ+fhP11dXbu6umhp2cZYvb29CCEul+vi4oIpn9GYrAYgDrp7UmL/fgYhFBERERERYWMj5uQRQm5ublSfY9JcKi3vX5ws9UdIryx/r1yYWAwfx46FnlnW09Ozr69v+E+tVuvh4UFLy7bEKiwsTElJQQjFxMTU1NRgyseWDMEkAN09KbF/P4MQ6ujoqK+vH3HnwoULhUKqB5UNDQ2hoaHm2/fv3/f29qb0NFNP/cm8g1fFZ3dLkbyw8E7cjpclcBw7FnpmWZFI1NzcLJVKEUI6na61tdXPz4+Wlm2JlZycnJycjCmNcTBZDUAcdPekxP79jPlz2ZycnBF3HjlyxMfHh2ILc+fOHRoamnBgoXjdm29UJOUVK8IkX1wSJe6VUg04FdHzuezKlSv3799vfuuXn58fEhISHh5OS8tkY1mH/RkCGkF3T0p20a1SqfT0KNSnWFsIgxM2xfcUHyo8phAnrIqGA9lx0DPLZmRkhIWFBQYGxsTEFBQUlJSUODg40NIy2VjWwZ1hTk4Oh8ORSCQIIScnJw6HU1lZSWP77E+AVYgPSHZ2Bzuzoo5gtxIs3QRC89zj1iY4le74ihe9CA5kx8Wx5nTBGJRKZXd3d2RkpKOj46P341gvCV8surJlshqP2sXnU1z57o9GI44E+Hw+e1a+M+LZxtFIdfdjEU/AoqNHj5Ja+W79+vXUH4+jWyfRynd65fVajbMkOtjKLw5NbsPloudzWTOxWCwWi2lskCWxrMP+DAGNoLsnJejWcQnFUYtI52AHYLUAAAAAABeYZQEAAABcYJYFAAAAcOHU7tpFOgcAAABgsvFYswYhxPOz9nelqWvTaBiIQlcs3NmypH18aTDZ3eNjQybEcyCegEWksqIrri3t2JiDnYaegto0GvM1xnDGGAAAAMAFZlkAAAAAF5hlAQAAAFxglgUAAABwoXOWvdPVdb2lxcDIr+sxGcs6Or3+QmPjIH0/YDkC8Qrg3kD7At1hEfGy2Ihg/l063Y07d0yDg1MkdHN7e+axY4XnzlV///3W4mImQ+NGzy8sGkym1MOHLzY2zpo580eNpvS118L8cS3py2Qsq126dSv9ww9b1eo7Bw4I+Hx6G2dDBbBuoH2B7rCIDWWxBcH8W9XqVwoKuh888HJxud3Rkb5iRfrzz0/60Dv++lcXoXDhnDnft7XdaG1lJigz6DmWPX7xok6vv7F795msrD+tWrUF5zsRJmNZp/7u3U1FRfhGJ/EK4N5A+wLdYRHxstiIYP77KipCRKJrb7/9zbZtBSkpe7/8krWhB4zGWpWqrafnsS0bTKZalepHjWbE/abBQfPTO7XaF6Kjw0e9lbnb1fWdPZ8Ooe1Y9uS1ay/Nn+/I4yGEXlqwYFtJSYtaHYBnzQ0mY1nH09X1zPbtXX19mNonXgHcG2hfoDssIl4WGxHM/38TEx/o9ebbvh4e/QbDg4GB6QLB6Ef+cO/eV7W1I+5MiY93mzYNd2iE0Gdy+RtHjgR5eys7Ov4tNPT95OQrTU0phw7d3LuX7+CAEDpVV7eluLjm7bfP3ryZXlTkP3Nmc3v78089dWDjRkceb1tJiYDPr1QoAjw9Re7uyo6Od7/+WnHnTqivr7n93ocPXz18+JpSOWvmzLbu7oKUlKVhYfOzsvYlJS0ODR0aGgrbujVhwYLsxESE0NbiYi9X160vvmjdhmNFz7GsqrNz1syZ5tuOPJ7I3b25vZ2WlsnGso6Xq6uHszO+9olXAPcG2hfoDouIl8VGBPN3EQp9fv7xh2Pnz/8qNnaseY5g6Hs9Pa999FH+b35zevv2m3v2GIzG4xcuLA4NFTo6VioU5sd8Jpe/NH/+gNG4+eOPC1NTz+7Yodiz53ZHx4d//ztCyIHL/dt33+1eu/bopk171q0LfOKJ137xix2rVg2H2PPllw/0+uu5uWd37Dj86quvHz1qMJmWR0ZebmpCCNW2tIT7+19oaDA/+GJjozQ8HH+FrEHPsWx3X990oXD4Txcnp25s76wnFEvb348Q4nI4zo88xd4xWW3wWNAdFtl7WRjez5hbQAi5OjkN37mvouJCY2N5RsZYzwr19R0+8qPXY0PXqlSeLi4vxsQghAR8/nNhYZU3b25cunT1okVf1NSsmDdvwGj8+vr101lZl27dEvB4XC73QmMjQigqIODbpqZXly1DCD01e/aiOXPGCvHtrVuvLF1qnuYXh4b29fffaG19TiI5fO4cQuj8Dz/8Yt684gsXOrVaw08/aR4+jGbrGoX0zLIezs7D5xkQQrr+/hnTp9PSsi2xii9cyPj4Y3NfnsnKwpQP85isNngs6A6L7L0sTO5nmtrb495803z75p49T7i66o3G3M8/r1WpSjdvHuf0r1qna/jxxxF3xorFtlwBRzF0V1+fp4vL8J/OQmF7by9C6OVnnlmRm6s3Gr+8dm2ur2+wt/flpqY+vf6diorhBwd7e5tvjD8k1DrdoydpXJyc2nt7nwsL+31hod5oPN/Q8D+//rWys/N8Q4PBZJKGh3M5HKu3Git6ZllvNzdVZ+fi0FCEUJ9ef7e7W4Tt5y6px1r37LPrnn0WUxoEMVlt8FjQHRbZe1mY3M8Ee3t3FBQM/2kwmdYfPBjo6Vm6ebP5g+GxfN/W9u4334y48y+vvOJl7SxLPbSXq6tapxv+U63VmusTIhLN9fU9fePG53L56oULzY90EQrLNm+eaDLebm7D5w9+Ghxs7+31mTFjukAQGxR0sbHx5t27c319nwkOPt/QMGA0Lg0Ls2qLmUDP57IvREUdPnfuwcAAQqigsvJJb++5eM5jMByLnaACrALdYZG9l4Vg/oVVVVwOZ8+6dePPc+bzqGWbN4/45+XqykDoRXPmaPv7K2prEUI9Dx6UXbny/Lx55v9KWLDg0ytXLjQ2rpw/3/zIAZPpk0uXzP/7l1OnLjY2UklmeWTk8YsX+w0GhNBH1dV+Hh5PzZ6NEIoPCyuorIwNCuJyOHFz5lxqbLzQ0MDaD2VpO5ZNXb78u5aWmG3b/D081DpdWUaGAxfXr0oxGcs673799VuffWa+PesPf0AIlWdkmN8U04J4BXBvoH2B7rCIeFlsRDD/z65erVWpvNPShu85uXXrM8HBrArtNm3avqSk33/wQYhI1NzevmLevMSFC83/tSo29s+lpf8RE2M+IewsFO5LSvqvDz88VFnJc3Dw8/BIkUqpJJO6bNmVpqaY7dt93Nw6tdpDv/sdj8tFCC2RSP5febn50uKZLi5cLlc0YwabP4/gPHqmwkatanXPgwcSP78R74NwrJeELxZLVqZ7LBsrACvf0YvJwT8hZBNgW1kmGhdH/pNp5Tu90Vjf1ubr7u7zuGYNJlN9W1uwt/dELxAzd0GYv7/520F2pE2jicrMpO1Y1my2p+dspr4Px2QsdoIKsAp0h0X2XhZ7zx83IZ8fExhI5ZGOPF5UQIAVISZBF9jTORwAAADAvsAsCwAAAOACsywAAACAC6d21y7SOQA6/Y3y9+Kff+stHAnMZ9MPgFzFs43ARgpy3+qJuHePVGgw1XisWYMQ4gzhX5CytbV19uzZuKPQFQt3trjb38Xnu1NYv0LD4/3RaMSRAJ/PN7FjAQ0ej2fEs43UMTn42ZmARUePHvUkcUmLWq1ev3697e3YUlUbe8ROQ09Bw+WCM8YAAAAALjDLAgAAALjALAsAAADgArMsAAAAejyyjhH4JzpnWZVKJZfLBwYGaGyTDbGso9Vqq6qqBgcH7bR99ifAKsQHJPEELLL3QUKwqgRLZ21ovbI0JW5xSsVdTHnZK3pmWYPBkJCQEBsbm5qaGhAQUFdXR0uzxGNZrbq6OioqKj4+3mAw2GP77E+APYgPSOIJjMWuBwnZqhIsndWhNefzUrZfi3s9S+qPLTn7RM8sW1RUpNVq29raampqcnNz0x5Z0oF2TMayTl1d3YYNGzIzM+20ffYnwCrEByTxBCyy90FCsKoES2d9aNWnOzLKxTvL98rEE1sNYAqgZ7WAsrIymUwmEAgQQjKZLD09/fbt20FBQbQ0TjCWdby8vORyuVqtttP22Z8AqxAfkMQTsMjeBwnBqlIvnUKhOHHixIg709PT3a1deMfKXjPdr9idfTFyS/kqmGItoOdYtrm5OfDnlRkEAoGfn18jtXV6WR7LOj4+Pli/cY+7ffYnwCrEByTxBCyy90FCsKoES2ddaM23hXk34rJ3roU51iJ6jmXVarWzs/Pwn66url1dXbS0bGOs3t5ehBCXy3VxccGUD5jimBz87ExgUmJ4P2NuASHk5uZG/VkRERERERHWRbSJSXOptLx/cbLUHyG9svy9cmFiMXwcOxZ6ZllPT8++vr7hP7Wy9eJ0AAAgAElEQVRarYeHBy0t2xKrsLAwJSUFIRQTE1NTU4MpHzDFMTn42ZnApMTkfqahoSE0NNR8+/79+97e3hSf2NHRUV9fP+LOhQsXCie4UvqEmXrqT+YdvCo+u1uK5IWFd+J2vCyB49ix0DPLikSi5uZmqVSKENLpdK2trX5+frS0bEus5OTk5ORkTGkAYMbk4GdnApMSk/uZuXPnWvd78gqFIicnZ8SdR44c8fHxsSWfxxOK1735RkVSXrEiTPLFJVHiXinmgHaNns9lV65cuX//fvNbv/z8/JCQkPDwcFpaJhsLgMciPiCJJzAp2UVVpVLp6VGwT7EIIYSEwQmb4nuKDxUeU4gTVkXDgew46JllMzIywsLCAgMDY2JiCgoKSkpKHBwcaGmZbCzr5OTkcDgciUSCEHJycuJwOJWVlXbUPvsTYBXiA5J4AhbZ+yAhWFWCpZtAaJ573NoEp9IdX/GiF8GB7LjoXPlOqVR2d3dHRkY6Ojo+ej+O9ZLwxYKV72w0NVe+Y3LwszOBCbGXle9wVHUSrXynV16v1ThLooOt/OLQ5DZcLno+lzUTi8VisZjGBlkSC4DHIj4giScwKUFVxyUURy0inYMdgNUCAAAAAFxglgUAAABwgVkWAAAAwIXT0tJCOgdAp+NPPknxkbLmZhwJPEk5AQY049lGYKPq6mpSoZcsWUIqNJiaeAxcf8jkVY5wjTFCiOI1xvjSYM81xsQvryV+iS/xBMZC6hpjWqrBpgt97SP0FDRcLjhjDAAAAOACsywAAACAC8yyAAAAAC4wywIAAKCHXk86A/ahc5ZVqVRyuXxgYIDGNsei1WqrqqoGBwcZiGUd3NVgstoWsb8LmES8GsTHg0XEy2IjgvkT7FBrt1qvLE2JW5xScRdTXvaKnlnWYDAkJCTExsampqYGBATU1dXR0uxYqquro6Ki4uPjDQYD1kDWwV0NhqttEcu7gGFkq8GG8WCRvQ8SUvmT7VCrt1pzPi9l+7W417NgOfcR6Jlli4qKtFptW1tbTU1Nbm5uWloaLc1aVFdXt2HDhszMTHwhbIS7GkxW2yL2dwGTiFeD+HiwiHhZbEQwf4Idav1Wqz7dkVEu3lm+VyaGVfBGoGe1gLKyMplMJhAIEEIymSw9Pf327dtBQUG0ND6Cl5eXXC5Xq9U4GqcF7mowWW2L2N8FTCJeDeLjwSLiZbERwfypd6hCoThx4sSIO9PT093drVwkx8qtNt2v2J19MXJL+SqYYi2g51i2ubk5MDDQfFsgEPj5+TU2NtLS8mg+Pj5Evs9OHe5qMFlti9jfBUwiXg3i48Ei4mWxEcH8CXaodVut+bYw70Zc9s61MMdaRM+xrFqtdnZ2Hv7T1dW1q6uLlpZt1NvbixDicrkuLi6MBcVdDdZWGxAB44E4evcz1Ds0IiIiIiLC9ogTZtJcKi3vX5ws9UdIryx/r1yYWAwfx46FnlnW09Ozr69v+E+tVuvh4UFLy7YoLCxMSUlBCMXExNTU1DAWF3c12FltQAqMB7Jo389Q79COjo76+voRdy5cuFAoxHxQaeqpP5l38Kr47G4pkhcW3onb8bIEjmPHQs8sKxKJmpubpVIpQkin07W2tvr5+dHSsi2Sk5OTk5OZj4u7GuysNiAFxgNZtO9nqHeoQqHIyckZceeRI0d8fHxozMcCoXjdm29UJOUVK8IkX1wSJe6VYg5o1+j5XHblypX79+83v//Kz88PCQkJDw+npWV7hLsaUG3wKBgPkwz1DpVKpadHwT7FIoQQEgYnbIrvKT5UeEwhTlgVDQey46Bnls3IyAgLCwsMDIyJiSkoKCgpKXFwcKCl5dFycnI4HI5EIkEIOTk5cTicyspKTLGsg7saTFbbIvZ3AZOIV4P4eLCIeFlsRDB/gh06ga3mucetTXAq3fEVL3oRHMiOizM0NERXW0qlsru7OzIy0tHR8dH7p+bKd7irMVb7u/h8iivf/dFotD2N0fh8PntWvjPi2UbqGBv8bHj1UXf06FFSK9+tX7/e9nYYWH4OR4fSvfKdXnm9VuMsiQ628otDk9twuej5XNZMLBaLxWIaG7RruKsB1QaPgvEwydhDhwrFUYtI52AHYLUAAAAAABeYZQEAAABcYJYFAAAAcOG0tLSQzgHQ6fiTT1J8pKy5GUcCT1JOgAHNeLYR2Ki6uppU6CVLlpAKDaYmHgPXH07Na4xJtY8QoniNMb402HONMfHLa4lf4ks8gbGQusaYlmqw6UJf+wg9BQ2XC84YAwAAALjALAsAAADgArMsAAAAgAvMsgAAAOih15POgH3onGVVKpVcLh8YGKCxzbFotdqqqqrBwUEGYlkHdzWIV4B4AqxCvBpMvvqoY2dW1BHsVoKhre01vbI0JW5xSsVdTHnZK3pmWYPBkJCQEBsbm5qaGhAQUFdXR0uzY6muro6KioqPjzcYDFgDWYeBahCvAPEEWIVsNRh+9VHEzqwmhGC3kgptS69pzuelbL8W93oWLOc+Aj2zbFFRkVarbWtrq6mpyc3NTUtLo6VZi+rq6jZs2JCZmYkvhI1wV4N4BYgnwCrEq8Hkq486dmZFHcFuJRja+l5Tfbojo1y8s3yvTAyr4I1Az2oBZWVlMplMIBAghGQyWXp6+u3bt4OCgmhpfAQvLy+5XK5Wq3E0Tgvc1SBeAeIJsArxajD56rP3rKgj2K3UQysUihMnToy4Mz093d3dykVyrOw10/2K3dkXI7eUr4Ip1gJ6jmWbm5sDAwPNtwUCgZ+fX2NjIy0tj+bj40Pk++zU4a4G8QoQT4BViFeDyVcfdezMijqC3UowtHW9pvm2MO9GXPbOtTDHWkTPsaxarXZ2dh7+09XVtauri5aWbdTb24sQ4nK5Li4ujAVlbTXApMTO8cbOrDAhsp9BCEVERERERNDYINVeM2kulZb3L06W+iOkV5a/Vy5MLIaPY8dCzyzr6enZ19c3/KdWq/Xw8KClZVsUFhampKQghGJiYmpqahiLy85qgMmKneONnVnhQGo/gxDq6Oior68fcefChQuFQisPKqn2mqmn/mTewavis7ulSF5YeCdux8sSOI4dCz2zrEgkam5ulkqlCCGdTtfa2urn50dLy7ZITk5OTk5mPi47qwEmK3aON3ZmhQOp/Yz5c9mcnJwRdx45csTHx8e6Bqn2mlC87s03KpLyihVhki8uiRL3Sq0MOCXQ87nsypUr9+/fb34TlJ+fHxISEh4eTkvL9giqAZjEzvHGzqwmGalUenoUq6fYCfWaMDhhU3xP8aHCYwpxwqpoOJAdBz2zbEZGRlhYWGBgYExMTEFBQUlJiYODAy0tj5aTk8PhcCQSCULIycmJw+FUVlZiimUd3NUgXgHiCbAK8Wow+eqz96yoI9itBENPoNd47nFrE5xKd3zFi14EB7Lj4gwNDdHVllKp7O7ujoyMdHR0fPT+qbnyHalq7OLzKa5890ejEUcCfD6fPSvfGfFsI3WMDX42vPqoZ3X06FFSK9+tX7/e9nbsdPk5is+lPJb0yuu1GmdJdLCVXxya3IbLRc/nsmZisVgsFtPYoF2DagAmsXO8sTMrMD7KvSYURy1iIB97B6sFAAAAALjALAsAAADgArMsAAAAgAundtcu0jkAAAAAk43HmjUIIZ6ftb8rTV2bRsNAFLpi4c6WJe3jS4PJ7h4fGzIhngPxBCwilRVdcW1px8Yc7DT0FNSm0ZivMYYzxgAAAAAuMMsCAAAAuMAsCwAAAOACsywAAACAC52z7J2urustLQZGfl1Pp9dfaGwcpO/nIWmHO0Mmq20R+7uASdAdFrEzK+oI5t+l0924c8c0OMh86Psazc27d39iNnRze3vmsWOF585Vf//91uJiJkPjRs8vLBpMptTDhy82Ns6aOfNHjab0tdfC/DEu6Xvp1q30Dz9sVavvHDgg4PPxBbIa1gwZrrZF7O8CxkB3jIWdWVFHKv9WtfqVgoLuBw+8XFxud3Skr1iR/vzzzIRu+PHH3x06pDca3adNa1GrM154IW35cmZC7/jrX12EwoVz5nzf1najtZWZoMyg51j2+MWLOr3+xu7dZ7Ky/rRq1Rac70Tq797dVFTE2LCzAu4Mmay2RezvAiZBd1jEzqyoI5j/voqKEJHo2ttvf7NtW0FKyt4vv2Qs9K4vvlgikVzJzj61ffuBjRv3nDw5/uMHjMZalaqtp+exLRtMplqV6keNZsT9psFB89M7tdoXoqPDR71DvdvV9R3Rs0S2o+dY9uS1ay/Nn+/I4yGEXlqwYFtJSYtaHYBnzQ1PV9cz27d39fXhaJwWuDNkstoWsb8LmATdYRE7s6KOYP7/m5j4QK833/b18Og3GB4MDEwXCEY/8od7976qrR1xZ0p8vNu0adaF3peUZPrpJ/NtvxkzdHq9wWQyj+3RPpPL3zhyJMjbW9nR8W+hoe8nJ19pako5dOjm3r18BweE0Km6ui3FxTVvv3325s30oiL/mTOb29uff+qpAxs3OvJ420pKBHx+pUIR4OkpcndXdnS8+/XXijt3Qn19ze33Pnz46uHD15TKWTNntnV3F6SkLA0Lm5+VtS8paXFo6NDQUNjWrQkLFmQnJiKEthYXe7m6bn3xRes2HCt6ZllVZ+esmTPNtx15PJG7e3N7O6YdjZerK0KIza9e3BkyWW2L2N8FTILusIidWVFHMH8XodBF+M9l0Y+dP/+r2FiLUywO7tOmIYS+a2nR9vf/39mzW198cawp9l5Pz2sffXRg48YXY2IGjMaN779//MKF3z73nNDRsVKhWDFvnnkafmn+/AGjcfPHHxempi4ODdXp9avy8j78+99fXbbMgcv923ff7UtKWjRnDkLomlKZvmLFytjYssuXzSH2fPnlA73+em7udIHgHz/88NrHH3+7c+fyyMjLTU2LQ0NrW1rC/f0vNDSYH3yxsfG93/yGmSpNFD2zbHdf3/SfhwVCyMXJqZsdry5tfz9CiMvhOD+Snr1jbbWnJugOYPt+xtwCQsjVyWn4zn0VFRcaG8szMsZ6Vqiv7/CRH42OXbz4RU1NgKfnv0dGjvWYWpXK08XlxZgYhJCAz38uLKzy5s2NS5euXrToi5qaFfPmDRiNX1+/fjor69KtWwIej8vlXmhsRAhFBQR829T06rJlCKGnZs82T7EWfXvr1itLl5rfYSwODe3r77/R2vqcRHL43DmE0PkffvjFvHnFFy50arWGn37SPHwYzdY1FumZZT2cnYdPcSCEdP39M6ZPp6VlWxRfuJDx8cfmvjyTlUU6Hdqws9pTFnTHFGf7fqapvT3uzTfNt2/u2fOEq6veaMz9/PNalap08+ZxTv+qdbqGH38ccWesWGzjtVq7ZLKcNWtO1tQk5udfeestd0sJdPX1ebq4DP/pLBS29/YihF5+5pkVubl6o/HLa9fm+voGe3tfbmrq0+vfqagYfnCwt7f5xvivFLVO5+HsPPyni5NTe2/vc2Fhvy8s1BuN5xsa/ufXv1Z2dp5vaDCYTNLwcC6HY8tW40PPLOvt5qbq7FwcGooQ6tPr73Z3i1jwc5frnn123bPPks6Cfuys9pQF3THF2b6fCfb27igoGP7TYDKtP3gw0NOzdPPmsU7Ymn3f1vbuN9+MuPMvr7ziZe0se/LatRCRaK5IxOVwfhUb+98lJddVqqVhYaMf6eXqqtbphv9Ua7XmYR8iEs319T1948bncvnqhQvNj3QRCss2b55oMt5ubsOnhX4aHGzv7fWZMWO6QBAbFHSxsfHm3btzfX2fCQ4+39AwYDRaTJIl6JllX4iKOnzu3EsLFkwXCAoqK5/09p6L4TwGMINqswp0B6BXYVUVl8PZs24d53EHZ4tDQ81v7+hy5B//4HG5h199dZpAcPbmzS6dbqwrDBbNmaPt76+orX0hOrrnwYOyK1eGv/OTsGDBp1euXGhsfO+3vzU/csBk+uTSpdWLFiGE/nLqVFRgYFxIyGOTWR4ZefzixVXz5zs5On5UXe3n4fHU7NkIofiwsILKytigIC6HEzdnzp6TJ/sNhj8nJNBYB3rRM8umLl/+XUtLzLZt/h4eap2uLCPDgYvrV6Xe/frrtz77zHx71h/+gBAqz8igd6jZCHeGTFbbIvZ3AZOgO+woK+oI5v/Z1au1KpV3WtrwPSe3bn0mOJiB0PuSkv7zgw/Ct271nzmzXaPZvXat2MvL4iPdpk3bl5T0+w8+CBGJmtvbV8ybl7hwofm/VsXG/rm09D9iYswnhJ2Fwn1JSf/14YeHKit5Dg5+Hh4pUimVZFKXLbvS1BSzfbuPm1unVnvod7/jcbkIoSUSyf8rLzdfWjzTxYXL5YpmzGDzxzScR89U2KhVre558EDi5zfiLAesfIejfRurDSvf0YsNg98i4glYBCvfsTn0vZ6err6+uSLRYwez3misb2vzdXf3eVyzBpOpvq0t2Nt7oheImV9ZYf7+5m8H2ZE2jSYqM5O2Y1mz2Z6esxn8AsMUB9VmFegOMGn4zpjhO2MGlUcK+fyYwEAqj3Tk8aICAqxIZhK8smC1AAAAAAAXmGUBAAAAXGCWBQAAAHDh1O7aRToHQKe/Uf5e/PNvvYUjgfls+gGQq3i2EdhIQe7LThH37pEKDaYajzVrEEKcIfxLJ7a2ts6ePRt3FLpi4c4Wd/u7+Hx3CutXaHi8PxqNOBLg8/kmdiygwePxjHi2kTomBz87E7Do6NGjniQuaVGr1evXr7e9HVuqamOP2GnoKWi4XHDGGAAAAMAFZlkAAAAAF5hlAQAAAFxglgUAAECPR5anAv9E5yyrUqnkcvnAwACNbY5Fq9VWVVUNDg4yEMs6uDMkXgHiCbAKk4PfInZ2B/Gy2IhgVQmG7uzsrK2tnfg1jHplaUrc4pSKu5jyslf0zLIGgyEhISE2NjY1NTUgIKCuro6WZsdSXV0dFRUVHx9vMBiwBrIa7gyJV4B4AuzB8OC3iIXdwYay2IhgVUmFViqVTz/99Pz589PS0ry8vHZN5HuemvN5Kduvxb2eJfXHmaIdomeWLSoq0mq1bW1tNTU1ubm5aY+sJkG7urq6DRs2ZGZm4gthI9wZEq8A8QRYhcnBbxE7u4N4WWxEsKoEQ2dnZ0skEpVKdfny5ePHj+/cuZPqM1Wf7sgoF+8s3ysTT2w1gCmAntUCysrKZDKZQCBACMlksvT09Nu3bwcFBdHS+AheXl5yuVytVuNonBa4MyReAeIJsAqTg98idnYH8bLYiGBVqYdWKBQnTpwYcWd6erq7tYv2vPPOO30/L5w+a9ashw8f9vX1OTs7P+ZppvsVu7MvRm4pXwVTrAX0HMs2NzcH/rwyg0Ag8PPza2xspKXl0Xx8fIh8n5063BkSrwDxBFiFycFvETu7g3hZbESwqgRDu7q6+v78s1yFhYWJiYmPn2IR0nxbmHcjLnvnWphjLaLnWFatVj/aGa6url1dXbS0bKPe3l6EEJfLdXFxIZ0LmJxYO/jJmlJlsX0/Y24BIeTm5kb9WREREREREdZFHF92dnZVVVVlZaXl/zZpLpWW9y9OlvojpFeWv1cuTCyGj2PHQs8s6+npOXyewXx1nIeHBy0t26KwsDAlJQUhFBMTU1NTQzodMDmxc/ATN3XKYvt+pqGhITQ01Hz7/v373t7eFJ/Y0dFRX18/4s6FCxcKJ7hS+qP6+/v/9Kc/Xb169fTp02OeeTb11J/MO3hVfHa3FMkLC+/E7XhZAsexY6FnlhWJRM3NzVKpFCGk0+laW1v9/PxoadkWycnJycnJpLMAkxw7Bz9xU6cstu9n5s6da93vySsUipycnBF3HjlyxMfHx7pMDAbDL3/5y6CgoFOnTpk/U7dMKF735hsVSXnFijDJF5dEiXulVgacEuiZZVeuXLl//36ZTObs7Jyfnx8SEhIeHk5LywCwHAx+i6AsDJBKpeb3MXQ5cOAAl8t9//33ORzO+I8UBidsii/ccagwTCVO+M9oOJAdBz1XP2VkZISFhQUGBsbExBQUFJSUlDg4ONDS8mg5OTkcDkcikSCEnJycOBzOmB8eEII7Q+IVIJ4AqzA5+C1iZ3cQL4uNCFaVYOiSkpJTp05xuVzOz86fP2/5oTz3uLUJTqU7vuJFL4ID2XHRufKdUqns7u6OjIx0dHR89H5Y+Y7J9mHlu2FMrnzHhsFvEdkExioLrHw3KULrlddrNc6S6GArvzg0uQ2Xi54zxmZisVgsFtPYIAD2Aga/RVCWSU0ojlpEOgc7AKsFAAAAALjALAsAAADgArMsAAAAgAunpaWFdA6ATseffJLiI2XNzTgSeJJyAgxoxrONwEbV1dWkQi9ZsoRUaDA18Ri4/hCuMWayfYQQxWuM8aXBnmuMyV7fS/wSXzYkMBZS1xjTUg02XehrH6GnoOFywRljAAAAABeYZQEAAABcYJYFAAAAcIFZFgAAAD30etIZsA+ds6xWq62qqhocHKSxzbGoVCq5XD4wMMBALOvgzpB4BZjsbvYjXg3iCVhEfJTaqLOzs7a2lsjVfARLZ+1W65WlKXGLUyruYsrLXtE2y1ZXV0dFRcXHxxsMBrratMhgMCQkJMTGxqampgYEBNTV1WENZwXcGbKhAox1t10gXg3iCYzGhlFqC6VS+fTTT8+fPz8tLc3Ly2vXrl2MhSZYOlu2WnM+L2X7tbjXs2A59xHomWXr6uo2bNiQmZlJS2vjKyoq0mq1bW1tNTU1ubm5aWlpDASdENwZEq8Ak93NfsSrQTwBi4iPUhtlZ2dLJBKVSnX58uXjx4/v3LmTsdAES2f9Vqs+3ZFRLt5ZvlcmhlXwRqBntQAvLy+5XK5Wq2lpbXxlZWUymcy8wrBMJktPT799+3ZQUBADoSnCnSHxCjDZ3exHvBrEE7CI+Ci10TvvvNPX12e+PWvWrIcPH/b19Tk7OzMQmnrpFArFiRMnRtyZnp7u7m7lIjlWbrXpfsXu7IuRW8pXwRRrAT3Hsj4+Pox9x7y5uTkwMNB8WyAQ+Pn5NTY2MhOaItwZEq8Ak93NfsSrQTwBi4iPUhu5urr6+vqabxcWFiYmJjIzxZItnXVbrfm2MO9GXPbOtTDHWkTnynfMUKvVj3a8q6trV1fXWA/u7e1FCHG5XBcXF6YSnFiGLGwfANvZ4yg17y4QQm5ubsN3ZmdnV1VVjb+OOr37Geqli4iIiIiIsDGcNVtt0lwqLe9fnCz1R0ivLH+vXJhYDB/HjsX+ZllPT8/hcxrmSys9PDwsPrKwsDAlJQUhFBMTU1NTw8IM2dk+ALazu1Ha0NAQGhpqvn3//n1vb+/+/v4//elPV69ePX369DjnYGnfz1AvXUdHR319/Yg7Fy5cKBRSPai0cqtNPfUn8w5eFZ/dLUXywsI7cTtelsBx7Fjsb5YViUTNzc1SqRQhpNPpWltb/fz8LD4yOTk5OTmZ8QQnkCE72wfAdnY3SufOnTs0NDT8p8Fg+OUvfxkUFHTq1CnzR6RjoX0/Q710CoUiJydnxJ1Hjhzx8fGhGMvKrRaK1735RkVSXrEiTPLFJVHiXinVgFOR/f0qxcqVK/fv329+r5efnx8SEhIeHk46qX+BO0P2VwAAex+lBw4c4HK577///vhTLA7USyeVSk+PQn2KHY36VguDEzbF9xQfKjymECesioYD2XHQM8vm5ORwOByJRIIQcnJy4nA443+MYYuMjIywsLDAwMCYmJiCgoKSkhIHBwdMsayDO0PiFWCyu9mPeDWIJ2AR8VFqo5KSklOnTnG5XM7Pzp8/z0xogqWbwFbz3OPWJjiV7viKF70IDmTHxXn0dAEmONZLUiqV3d3dkZGRjo6O9MaiK1t8GY7f/i4+n+LKd380Gm1PYzQ+n8+ele+MeLaROuKLhZFNYKxRevToUVIr361fv972dhhYfg7HDoTule/0yuu1GmdJdLCVXxya3IbLZX+fy5qJxWKxWEw6i/HgzpD9FQAARqnV7KF0QnHUItI52AH7+1wWAAAAsBcwywIAAAC4wCwLAAAA4MKpZXCtCQAAAGCK8FizBiHE87P2d6Wpa9NoGIhCVyzc2bKkfXxpMNnd42NDJsRzIJ6ARaSyoiuuLe3YmIOdhp6C2jQa8zXGcMYYAAAAwAVmWQAAAAAXmGUBAAAAXGCWBQAAAHChc5bV6fUXGhsH8f9kI0LoTlfX9ZYWAzt+yc8i3BkyWW12JsAqxKvBzlcE8bLYqEunu3HnjmlwkPnQBEt3X6O5effuT8xudXN7e+axY4XnzlV///3W4mImQ+NG2y8sXrp1K/3DD1vV6jsHDgj4fLqaHc1gMqUePnyxsXHWzJk/ajSlr70W5s+u5YMZyJCxarM2AVYhWw3WviLsepC0qtWvFBR0P3jg5eJyu6MjfcWK9OefZyw6qdI1/Pjj7w4d0huN7tOmtajVGS+8kLZ8OTOhd/z1ry5C4cI5c75va7vR2spMUGbQcyxbf/fupqIiZkbh8YsXdXr9jd27z2Rl/WnVqi3se9eDO0Mmq83OBFiFeDXY+YogXhYb7auoCBGJrr399jfbthWkpOz98kvGQhMs3a4vvlgikVzJzj61ffuBjRv3nDw5/uMHjMZalaqtp+exLRtMplqV6keNZsT9psFB89M7tdoXoqPDR71BvNvV9R37TtJMCD3Hsp6urme2b+/q66OltfGdvHbtpfnzHXk8hNBLCxZsKylpUasDSKzvMRbcGTJZbXYmwCrEq8HOVwTxstjofxMTH+j15tu+Hh79BsODgYHpjKw1S710P9y791Vt7Yg7U+Lj3aZNsy70vqQk008/mW/7zZih0+sNJpN5aI32mVz+xpEjQd7eyo6OfwsNfT85+UpTU8qhQzf37uU7OCCETtXVbSkurnn77bM3b6YXFfnPnNnc3v78U08d2LjRkcfbVlIi4PMrFYoAT0+Ru7uyo+Pdr79W3LkT6utrbr/34cNXDx++plTOmiNaqpQAACAASURBVDmzrbu7ICVlaVjY/KysfUlJi0NDh4aGwrZuTViwIDsxESG0tbjYy9V164svWrfhWNEzy3q5uiKEmHlFqTo7Z82cab7tyOOJ3N2b29uJ71MehTtDJqvNzgRYhXg12PmKIF4WG7kIhS7Cf65Nfuz8+V/FxjIzxZItnfu0aQih71patP39/3f27NYXXxxrir3X0/PaRx8d2LjxxZiYAaNx4/vvH79w4bfPPSd0dKxUKFbMm2eehl+aP3/AaNz88ceFqamLQ0N1ev2qvLwP//73V5ctc+By//bdd/uSkhbNmYMQuqZUpq9YsTI2tuzyZXOIPV9++UCvv56bO10g+McPP7z28cff7ty5PDLyclPT4tDQ2paWcH//Cw0N5gdfbGx87ze/YbBUE2B/K9919/VN/3n0I4RcnJy6xx6O2v5+hBCXw3F+5Cm4TShDAGwE440u5t0FQsjVyWn4zn0VFRcaG8szMh77RIb3MwihUF/f4SM/q43e6mMXL35RUxPg6fnvkZFjPatWpfJ0cXkxJgYhJODznwsLq7x5c+PSpasXLfqipmbFvHkDRuPX16+fzsq6dOuWgMfjcrkXGhsRQlEBAd82Nb26bBlC6KnZs81TrEXf3rr1ytKl5jc3i0ND+/r7b7S2PieRHD53DiF0/ocffjFvXvGFC51areGnnzQPH0azdaFA+5tlPZydh8/kIIR0/f0zpk+3+MjiCxcyPv7Y3JdnsrJYmCEAtoPxRoum9va4N9803765Z88Trq56ozH3889rVarSzZvHOQdLaj+DEFLrdA0//jjizlixmPoFU6O3GiG0SybLWbPmZE1NYn7+lbfecre07V19fZ4uLsN/OguF7b29CKGXn3lmRW6u3mj88tq1ub6+wd7el5ua+vT6dyoqhh8c7O1tvjH+QFXrdB7OzsN/ujg5tff2PhcW9vvCQr3ReL6h4X9+/WtlZ+f5hgaDySQND+dyOBS3mmH2N8t6u7mpOjsXh4YihPr0+rvd3aIxflpz3bPPrnv2WcYTnECGANgOxhstgr29OwoKhv80mEzrDx4M9PQs3bx5rLOmZqT2Mwih79va3v3mmxF3/uWVV7woz7IjtvrktWshItFckYjL4fwqNva/S0quq1RLw8JGP9HL1VWt0w3/qdZqzaMuRCSa6+t7+saNz+Xy1QsXmh/pIhSWbd480a3zdnMbPivz0+Bge2+vz4wZ0wWC2KCgi42NN+/enevr+0xw8PmGhgGj0WKSLGF/s+wLUVGHz517acGC6QJBQWXlk97ec20+Z0Iv9mcIJhMYbzgUVlVxOZw969Zx2HqEZD6Pan53RZcj//gHj8s9/Oqr0wSCszdvdul0Y33Av2jOHG1/f0Vt7QvR0T0PHpRduTL8nZ+EBQs+vXLlQmPje7/9rfmRAybTJ5curV60CCH0l1OnogID40JCHpvM8sjI4xcvrpo/38nR8aPqaj8Pj6dmz0YIxYeFFVRWxgYFcTmcuDlz9pw82W8w/DkhgcY60IueWfbdr79+67PPzLdn/eEPCKHyjAx6u39Y6vLl37W0xGzb5u/hodbpyjIyHLjs+gUr3BkyWW12JsAqxKvBzlcE8bLY6LOrV2tVKu+0tOF7Tm7d+kxwMAOhCZZuX1LSf37wQfjWrf4zZ7ZrNLvXrhV7eVl8pNu0afuSkn7/wQchIlFze/uKefMSFy40/9eq2Ng/l5b+R0yM+YSws1C4Lynpvz788FBlJc/Bwc/DI0UqpZJM6rJlV5qaYrZv93Fz69RqD/3udzwuFyG0RCL5f+Xl5kuLZ7q4cLlc0YwZbP6UhPPo6QJMcKyX1KpW9zx4IPHzG3Eyhz0r3+HLcHyw8t0wNmTCWA6kxpt1YOU7Noe+19PT1dc3VyR67FjSG431bW2+7u4+j2vWYDLVt7UFe3tP9AIx88AO8/c3fzvIjrRpNFGZmXZ5xthstqfnbNLfVRgf+zMEkwmMN0AX3xkzfGfMoPJIIZ8fExhI5ZGOPF5UQIAVyUyCgU3+zBIAAAAwWcEsCwAAAOACsywAAACAC6d21y7SOQA6/Y3y9+Kff+stHAnMZ/aL+eO7imcbgY0U5L5rFHHvHqnQYKrxWLMGIcQZwr9+YWtr6+zZs3FHoSsW7mxxt7+Lz3ensH6Fhsf7o9GIIwE+n29ixwIaPB7PiGcbqWNy8LMzAYuOHj3qSeKSFrVavX79etvbsaWqNvaInYaegobLBWeMAQAAAFxglgUAAABwgVkWAAAAwAVmWQAAAPR4ZHUo8E90zrJarbaqqmpwcJDGNseiUqnkcvnAwAADsayDuxrEK8Bkd7Mf8WoQHw8WsTMr6jo7O2tra4lczUcwtLW9pleWpsQtTqm4iykve0XbLFtdXR0VFRUfH28wGOhq0yKDwZCQkBAbG5uamhoQEFBXV4c1nHWwVoMNFWCsu+0C2WqwYTyMxs6sqFMqlU8//fT8+fPT0tK8vLx2MfiNR4Khbek1zfm8lO3X4l7PkvrjTNEO0TPL1tXVbdiwITMzk5bWxldUVKTVatva2mpqanJzc9MeWTSDJXBXg3gFmOxu9iNeDeLjwSJ2ZkVddna2RCJRqVSXL18+fvz4zp07p0Jo63tN9emOjHLxzvK9MvHEVgOYAuhZLcDLy0sul6vValpaG19ZWZlMJhMIBAghmUyWnp5++/btoKAgBkJThLsaxCvAZHezH/FqEB8PdpQVde+8807fz0uIz5o16+HDh319fc7OzqwKrVAoTvz/9u73pa0rbgD4ufFXhBhFRGOzYq4WNRpBUwtWqMz8AcURJqRzvklAWckDbsXBZvdCArGlPpXaQR0EX2ifBjQTNuYLpUOCrCtN5siCoBAT3QRno9MoVaPo8yKblDRJrzf33nNu8v28ipfkfL/3e+69p/fmpGdqKmqj2WwuYLtoD8teO9mYvm/5pe6O4yMYYmPg5l5WoVAI9htzn8+n+m8ViJycHKVSuby8LExohviuBvYKCNnd5MNeDezHQ0xkZsWcXC6/9N9/UGWz2drb24UZYvGGZtdrO7/aBv9otvTfgjE2JvGtfBcMBt8+5uRy+dbWVrw37+7uIoQkEkleXp5QCfLuQhUAKY/M44HMrBKLXC4QQvn5+ecbLRbL3Nzc8+fP3/vBZK4z7EJrNBqNRsMuYkxMe+1k58WE4+CGUfcBQod+xyOHtP0pfB0bj/hG2aKiovPHKZG5nYWFhTHfabPZTCYTQkir1brdbgFz5BfzCoB0QObxQGZWCSwtLVVXV0deb2xslJSUHBwc3L1799WrV7OzswmewSZ/nWEdenNzc3FxMWpjU1OT9IIrpZ9j2msn/yz+OPjtK/rn+zrkstn+bO77WA33sfGIb5QtLS31+Xw6nQ4htLe3t7a2plQqY77TaDQajUbBE+Qd8wqAdEDm8UBmVglUVVW9/Z+6h8PhmzdvlpeXz8zMRL6njCf56wzr0F6v12q1Rm0cGxtTKBTsMmHaa1L6k2++mP508Km3Rv3Di9L2BzqWAdOC+P5Xira2tuHh4cg/uIaGhiorK2tra3EnJSioAHgbmccDmVkx9/jxY4lE8uTJk8TjHN7QOp1u9h2sh9gL9Zr0iv526z9Pv7P9n5fWf9QAN7IJcDPKWq1WiqLUajVCKDc3l6KoxF9jJKOnp6empkalUmm12pGREbvdnpGRwVMsdviuBvYKCNnd5MNeDezHg4iyYs5ut8/MzEgkEuo/8/PzKR/6Ar2WWdB8S5870fdTZsN1uJFNSKwr3/n9/u3t7bq6uuzsbG5jiWXlu3gVgJXvzqXVynf8nRF8ZAUr35EcmvGxdOj/fWFHpm64wvKHQ6ntvFzi+142gqZpmqZxZ4ETVAC8jczjgcysQGKMe01K118XIB+xE9/3sgAAAIBYwCgLAAAA8AVGWQAAAIAv1OrqKu4cAJeeVVQwfKfB5+MjgQrGCQjAx88+giQ5nU5coVtaWnCFBukpU4D5h0LOckyfOcYJMJxjzF8a5Mwxxji9NgLvFF8SEogH1xxjTqqR2nOMefp4ujkvFzwxBgAAAPgCoywAAADAFxhlAQAAAL7AKAsAAIAbh4e4MyAPl6NsKBSam5s7PT3lsM14AoGAy+U6OjoSIBY7fFdDyGqTmQBRsB+QZHYHmVkx9/r164WFBSyz+TCWjm3oQ/+EqfmGafovnvISK85GWafTWV9f39raGg6HuWozpnA4rNfrGxsbu7q6ysrKPB4Pr+HY4bsaglWb2ATIQcIBSWZ3kJkVQ36//+rVq9euXevu7i4uLr53756Q0TGWjnXonflB01e/NX/+NSznHoWbUdbj8XR2dvb29nLSWmKjo6OhUGh9fd3tdg8MDHR3dwsQ9EL4roaQ1SYzAaJgPyDJ7A4ys2LOYrGo1epAIPDy5ctnz5719/cLFhpj6diHDnzf1+Og+x0PDDSsgheFm9UCiouLXS5XMBjkpLXEJicnDQZDZOVFg8FgNptXVlbKy8sFCM0Q39UQstpkJkAU7Ackmd1BZlbMPXz4MLLMKkLo8uXLb9682d/fl8lkAoRmXjqv1zs1NRW10Ww2FxSwXCSHZa+dbEzft/xSd8fxEQyxMXBzL6tQKAT7jbnP51OpVJHXOTk5SqVyeXlZmNAM8V0NIatNZgJEwX5AktkdZGbFnFwuv3TpUuS1zWZrb28XZojFWzp2oXd+tQ3+0WzpvwVjbEziW/kuGAy+fbjL5fKtra14b97d3UUISSSSvLw8oRIE6eVCByQgWeRygRDKz88/32ixWObm5p4/f/7eDyZznYkZ+r00Go1Go2EXManQJzsvJhwHN4y6DxA69DseOaTtT+Hr2HjE90ueoqKi8yc5kelwhYWFMd9ps9kKCgoKCgo+/PBDARME6YX5AQlItrS0VPCfv//+GyF0cHBw586d2dnZ2dnZBM9gk7/OvBuaoc3Nzbl3HF7kxzQsQ5/8s/jj4J3//XnnBO24bLY/m29/rIb72HjEdy9bWlrq8/l0Oh1CaG9vb21tTalUxnyn0Wg0Go2CJwjSC/MDEpCsqqrq7Ozs/M9wOHzz5s3y8vKZmZnIl+7xJH+diQrNnNfrtVqtURvHxsYUCgW/oaX0J998Mf3p4FNvjfqHF6XtD3RMA6Yj8Y2ybW1tw8PDBoNBJpMNDQ1VVlbW1tbiTgqkLzggU9Ljx48lEsmTJ08oisKdS1w6nS7yzzvhSa/ob7fa+r6z1QRo/WcNcCObADdPjK1WK0VRarUaIZSbm0tRVOKvMZLR09NTU1OjUqm0Wu3IyIjdbs/IyOApFjt8V0PIapOZAFGwH5BkdgeZWTFnt9tnZmYkEgn1n/n5eWFCYyzdBUJnFjTf0udO9P2U2XAdbmQTotg9qbgQPtZL8vv929vbdXV12dnZ3MYS+8p397KyGK589+XxMR8JZGVlkbPy3TE/+/gu/g7IJGFPIKbx8XFcK991dHQk345Il5/jOvSh//eFHZm64QrLHw6ltvNyie+JcQRN0zRN484CgH/BAQnSj5Suv447BxEQ3xxjAAAAQCxglAUAAAD4AqMsAAAAwBdqdXUVdw6AS88qKhi+0+Dz8ZFABeMEBODjZx9BkpxOJ67QLS0tuEKDtHL90b8/s84UYP6hkLMcYY4xQojhHGP+0iBnjjH26bXYp/hiTyAeXHOMOakGSRN9xRE6Lf37f2nBE2MAAACAF+sPSmCUBQAAAPgCoywAAADAFxhlAQAAcOMiCwKlCy5H2VAoNDc3d3p6ymGbJMRiJxAIuFyuo6Mjkbb/XuR3gZCwVwN7AjGRmRVzGPPHeIKz3etD/4Sp+YZp+i+e8hIrzkZZp9NZX1/f2toaDoe5apOEWCyEw2G9Xt/Y2NjV1VVWVubxeMTVPhOEd4HAsFcDewIxkZkVc7jyx3uCs97rnflB01e/NX/+NSznHoWbUdbj8XR2dvb29nLSGjmx2BkdHQ2FQuvr6263e2BgoLu7W1ztvxf5XSAk7NXAnkBMZGbFHMb8MZ7g7Pc68H1fj4Pudzww0LAKXhRuVgsoLi52uVzBYJCT1siJxc7k5KTBYIis/GwwGMxm88rKSnl5uVjafy/yu0BI2KuBPYGYyMyKOYz5Mz/BvV7v1NRU1Eaz2VxQwHKRHJZ7fbIxfd/yS90dx0cwxMbAzb2sQqEQ7DfmQsZix+fzqVSqyOucnBylUrm8vCyi9t+L/C4QEvZqYE8gJjKzYg5j/hhPcHZ7vfOrbfCPZkv/LRhjYxLryncM7e7uIoQkEkleXp5gQYPBoEwmO/9TLpdvbW2JqH0A0lPkcoEQys/PZ/FBrq4zzE9wjUaj0WiSDMdmr092Xkw4Dm4YdR8gdOh3PHJI25/C17HxpPIoa7PZTCYTQkir1brdbsHiFhUV7e/vn/8ZCoUKCwtF1D4AaWhpaam6ujryemNjo6SkhOEHOb/OMD/BNzc3FxcXozY2NTVJpUxvKlnu9ck/iz8OfvuK/vm+Drlstj+b+z5Ww31sPKk8yhqNRqPRKHzc0tJSn8+n0+kQQnt7e2tra0qlUkTtA5CGqqqqzs7OWHyQ8+sM8xPc6/VardaojWNjYwqFgmEslnstpT/55ovpTwefemvUP7wobX+gYxowHaXyKItLW1vb8PCwwWCQyWRDQ0OVlZW1tbUiah8AgBHzE1yn00UGY+FJr+hvt9r6vrPVBGj9Zw1wI5sAN7OfrFYrRVFqtRohlJubS1HU8+fPOWkZbyx2enp6ampqVCqVVqsdGRmx2+0ZGRkiav+9yO8CIWGvBvYERJQVcxjzx3iCX2CvMwuab+lzJ/p+ymy4DjeyCVHsHpJcSHqufOf3+7e3t+vq6rKzs4Vs/15WFsOV7748Pk4+jXdlZWWRs/LdMT/7yBz2xcKwJxDT+Pg4rpXvOjo6km9HgOXn+LiAcL3y3aH/94UdmbrhCssfDqU25Z2/I2vywBNjvtA0TdO0eNsHAGAkhhNcStdfx52DCMBqAQAAAABfYJQFAAAA+AKjLAAAAMAL5Z2/qdXVVdxpAC49q6hg+E6Dz8dHAhWMExCAj599BElyOp24Qre0tOAKDdLK9Uc5kReZAsw/TM85xrjaRwgxnGPMXxrkzDHGPr0W+xRf7AnEg2uOMSfVIGmirzhCp6EX//NvueCJMQAAAMAXGGUBAAAAvsAoCwAAAPAFRlkAAADcODzEnQF5uBxlQ6HQ3Nzc6ekph22SEIudQCDgcrmOjo54ah97BbAnQBTs1cCeQEx8nwV8w1hVjKFfv369sLBw8TmMh/4JU/MN0/RfPOUlVpyNsk6ns76+vrW1NRwOc9UmCbFYCIfDer2+sbGxq6urrKzM4/FwHgJ7BbAnQBTs1cCewLsEOAv4hrGquEL7/f6rV69eu3atu7u7uLj43r17zD+7Mz9o+uq35s+/huXco3Azyno8ns7Ozt7eXk5aIycWO6Ojo6FQaH193e12DwwMdHd3c9s+9gpgT4Ao2KuBPYGY+D4L+IaxqhhDWywWtVodCARevnz57Nmz/v5+pp8MfN/X46D7HQ8MNKyCF4Wb1QKKi4tdLlcwGOSkNXJisTM5OWkwGHJychBCBoPBbDavrKyUl5dz1T72CmBPgCjYq4E9gZj4Pgv4hrGqzEN7vd6pqamojWazuaCA5SI5Dx8+3N/fj7y+fPnymzdv9vf3ZTLZez52sjF93/JL3R3HRzDExsDNvaxCoRDsN+ZCxmLH5/OpVKrI65ycHKVSuby8zGH72CuAPQGiYK8G9gRi4vss4BvGqmIMLZfLL126FHlts9na29vfP8QitPOrbfCPZkv/LRhjY0rxle92d3cRQhKJJC8vT7CgwWDw7UNTLpdvbW0JFh0AEojxLIhcLhBC+fn5LD4o8HUGIaTRaDQaTZKNxNxri8UyNzcXdwn3k50XE46DG0bdBwgd+h2PHNL2p/B1bDypPMrabDaTyYQQ0mq1brdbsLhFRUXnT10icwULCwsFiw4ACUR3FiwtLVVXV0deb2xslJSUMPwgrusMQmhzc3NxcTFqY1NTk1TK9Kby3b0+ODi4e/fuq1evZmdn4z55Pvln8cfBb1/RP9/XIZfN9mdz38dquI+NJ5VHWaPRaDQahY9bWlrq8/l0Oh1CaG9vb21tTalUCp8GABiJ7iyoqqo6Oztj8UFc15nI97JWqzVq49jYmEKhYNhC1F6Hw+GbN2+Wl5fPzMxEvlOPTUp/8s0X058OPvXWqH94Udr+QMc0YDpK5VEWl7a2tuHhYYPBIJPJhoaGKisra2trcScFgKDgLBCATqeL/DuGK48fP5ZIJE+ePKEoKvE7pVf0t1ttfd/ZagK0/rMGuJFNgJvZT1arlaIotVqNEMrNzaUoKu4DfVHFYqenp6empkalUmm12pGREbvdnpGRwWH72CuAPQGiYK8G9gRi4vss4BvGqmIMbbfbZ2ZmJBIJ9Z/5+fnYb80saL6lz53o+ymz4TrcyCZEsXtIciHpufKd3+/f3t6uq6vLzs7mo/147mVlMVz57svjYz4SyMrKImflu2N+9pE57IuF4U0g3lkwPj6Oa+W7jo6O5NsR6fJzXIc+9P++sCNTN1xh+cOh1HZeLnhizBeapmmaxp0FADjBWZDSpHT9ddw5iACsFgAAAADwBUZZAAAAgC8wygIAAAB8oVZXV3HnALj0rKKC4TsNPh8fCVQwTkAAPn72ESTJ6XTiCt3S0oIrNEhPmQLMP0zPOca42kcIMZxjzF8a5Mwxxju/F/sUXxISiAfXHGNOqkHSRF9xhE5D5+WCJ8YAAAAAX2CUBQAAAPgCoywAAADAFxhlAQAAcOPwEHcG5OFylA2FQnNzc6enpxy2SUIsdvjOMBAIuFyuo6Mjntp/L/K7QEjYq4H9eIgJe1mShDH/169fLywsYJlIyHavD/0TpuYbpum/eMpLrDgbZZ1OZ319fWtrazgc5qpNEmKxw2uG4XBYr9c3NjZ2dXWVlZV5PB7OQ7wX+V0gJLzVIOF4iEnsBwmu/P1+/9WrV69du9bd3V1cXHzv3j0ho7Pe6535QdNXvzV//jUs5x6Fm1HW4/F0dnb29vZy0ho5sdjhO8PR0dFQKLS+vu52uwcGBrq7u3kKFA/5XSAk7NXAfjzEhL0sScKYv8ViUavVgUDg5cuXz5496+/vFyw0+70OfN/X46D7HQ8MNKyCF4Wb1QKKi4tdLlcwGOSkNXJiscN3hpOTkwaDIbLGssFgMJvNKysr5eXlPIV7F/ldICTs1cB+PMSEvSxJwpj/w4cP9/f3I68vX7785s2b/f19mUz27ju9Xu/U1FTURrPZXFDAcpEclnt9sjF93/JL3R3HRzDExsDNvaxCoRDsN+ZCxmKH7wx9Pp9KpYq8zsnJUSqVy8vL/IV7F/ldICTs1cB+PMSEvSxJwpi/XC6/dOlS5LXNZmtvb485xPKB3V7v/Gob/KPZ0n8LxtiYUnzlu93dXYSQRCLJy8vDnQtngsHg22edXC7f2trCmhHACY4HrkQuFwih/Px8Fh9M5joTM7TFYpmbm0uwhLtGo9FoNOwiJuVk58WE4+CGUfcBQod+xyOHtP0pfB0bTyqPsjabzWQyIYS0Wq3b7cadDmeKiorOHyhFJgQWFhZizQjgBMcDJ5aWlqqrqyOvNzY2SkpKGH4w+evMu6EPDg7u3r376tWr2dnZBI9/Nzc3FxcXozY2NTVJpTzfVJ78s/jj4Lev6J/v65DLZvuzue9jNdzHxpPKo6zRaDQajbiz4F5paanP59PpdAihvb29tbU1pVKJOymADRwPnKiqqjo7O2PxweSvM1Ghw+HwzZs3y8vLZ2ZmIl+3x+P1eq1Wa9TGsbExhUKRTD7vJ6U/+eaL6U8Hn3pr1D+8KG1/oOM5oKil8iibqtra2oaHhw0Gg0wmGxoaqqysrK2txZ0UwAaOhxTz+PFjiUTy5MkTiqISv1On00X+dSU86RX97VZb33e2mgCt/6wBbmQT4Gb2k9VqpShKrVYjhHJzcymKSvBdgohiscN3hj09PTU1NSqVSqvVjoyM2O32jIwMDtt/L/K7QEjYq4H9eIgJe1mShDF/u90+MzMjkUio/8zPzwsT+gJ7nVnQfEufO9H3U2bDdbiRTYhi95DkQmDlOz7a9/v929vbdXV12dnZb2+/l5XFcOW7L4+Pk0/jXVlZWeSsfHfMzz4yJ9jBH+94IHO1svHxcVwr33V0dCTfjkiXn+M69KH/94UdmbrhCssfDqW283LBE2OxommapmncWQBSwPEABCel66/jzkEEYLUAAAAAgC8wygIAAAB8gVEWAAAA4Au1urqKOwfApWcVFQzfafD5+EiggnECAvDxs48gSU6nE1folpYWXKFBesoUYP4hzDEWsn2EEMM5xvylQc4cY+zTa7FP8cWeQDy45hhzUg2SJvqKI3QaOi8XPDEGAAAA+AKjLAAAAMAXGGUBAAAAvsAoCwAAgBuHh7gzIA+Xo2woFJqbmzs9PeWwTRJiscN3htgrgD0BomCvRiAQcLlcR0dHuBKIicysmMPYrRhDs+21Q/+EqfmGafovnvISK85GWafTWV9f39raGg6HuWqThFjs8J0h9gpgT4AoeKsRDof1en1jY2NXV1dZWZnH4xE+h3eRmdWFYOxWXKGT6bWd+UHTV781f/41LOcehZtR1uPxdHZ29vb2ctIaObHY4TtD7BXAngBRsFdjdHQ0FAqtr6+73e6BgYHu7m5cmbyNzKyYw9itGEOz77XA9309Drrf8cBAwyp4UbhZLaC4uNjlcgWDQU5aIycWO3xniL0C2BMgCvZqTE5OGgyGyHLfBoPBbDavrKyUl5fjyofkrJjD2K3MQ3u93qmpqaiNZrO5oIDlIjkse+1kY/q+5Ze6O46PYIiNgZt7WYVCIdhvzIWMxQ7fGWKvAPYEiIK9Gj6fT6VSRV7n5OQolcrl5WWM+USQmRVzGLsVY2h2vbbzq23wkcPvbAAAAktJREFUj2ZL/y0YY2NK8ZXvdnd3EUISiSQvLw93LgDwIhgMymSy8z/lcvnW1hbWjBCxWSUWuVwghPLz81l8MJnrDLvQGo1Go9GwixgT01472Xkx4Ti4YdR9gNCh3/HIIW1/Cl/HxpPKo6zNZjOZTAghrVbrdrtxpwMAL4qKivb398//DIVChYWFWDNCxGaVwNLSUnV1deT1xsZGSUkJww8mf51hHXpzc3NxcTFqY1NTk1TK8qaSaa+d/LP44+C3r+if7+uQy2b7s7nvYzXcx8aTyqOs0Wg0Go24swCAX6WlpT6fT6fTIYT29vbW1taUSiXupAjNKoGqqqqzszMWH0z+OsM6tNfrtVqtURvHxsYUCgW7TJj2mpT+5Jsvpj8dfOqtUf/worT9gY5lwLSQyqMsAOmgra1teHjYYDDIZLKhoaHKysra2lrcSRGaVYrR6XSREZErzHtNekV/u9XW952tJkDrP2uAG9kEuJn9ZLVaKYpSq9UIodzcXIqinj9/zknLeGOxw3eG2CuAPQGiYK9GT09PTU2NSqXSarUjIyN2uz0jI0PIBESUFXMYuxVj6Av0WmZB8y197kTfT5kN1+FGNiGK3ZOKC4GV74Rs/15WFsOV7748PuYjgaysLHJWvjvmZx+ZE+zg9/v929vbdXV12dnZWBK4UFbj4+O4Vr7r6OhIvh2RLj/H8LOMj6VD/+8LOzJ1wxWWPxxKbeflgifGAKQCmqZpmsadRTQyswKJMe41KV1/XYB8xA5WCwAAAAD4AqMsAAAAwJf/B/Cw37WggF1HAAAAAElFTkSuQmCC;" parent="1" vertex="1">
                    <mxGeometry x="680" y="90" width="380" height="415.53" as="geometry"/>
                </mxCell>
                <mxCell id="30" value="&lt;span style=&quot;color: rgb(33, 33, 33); font-family: Lato, sans-serif; font-variant-ligatures: none; text-wrap-mode: wrap;&quot;&gt;2-bit full Adder/subtractor&lt;/span&gt;" style="text;html=1;align=left;verticalAlign=middle;resizable=0;points=[];autosize=1;strokeColor=none;fillColor=none;fontSize=13;" parent="1" vertex="1">
                    <mxGeometry x="680" y="60" width="170" height="30" as="geometry"/>
                </mxCell>
            </root>
        </mxGraphModel>
    </diagram>
</mxfile>